/* XPM */
static char * close_inactive_xpm[] = {
"12 21 51 1",
" 	c None",
".	c #A8C7D3",
"+	c #A4C4D1",
"@	c #A1C2CF",
"#	c #9EBFCD",
"$	c #9BBDCB",
"%	c #9EBDCA",
"&	c #BDCED4",
"*	c #9EBECB",
"=	c #9DBECB",
"-	c #A0BECB",
";	c #98BAC9",
">	c #9ABAC9",
",	c #9BBBC9",
"'	c #9CBCC9",
")	c #95B8C7",
"!	c #9CBAC8",
"~	c #92B5C5",
"{	c #97B7C5",
"]	c #98B7C6",
"^	c #8FB3C3",
"/	c #9CB8C5",
"(	c #96B6C4",
"_	c #8CB0C1",
":	c #94B4C2",
"<	c #A8BDC6",
"[	c #8EB0C1",
"}	c #89AEBF",
"|	c #93B3C1",
"1	c #A6BCC5",
"2	c #89AFBF",
"3	c #85ABBD",
"4	c #92B1C0",
"5	c #8AADBE",
"6	c #94B2C0",
"7	c #92B2C0",
"8	c #82A9BB",
"9	c #91B1BF",
"0	c #85AABC",
"a	c #94B3C0",
"b	c #95B3C0",
"c	c #7FA6B9",
"d	c #7FA7BA",
"e	c #85AABB",
"f	c #7CA4B7",
"g	c #79A1B5",
"h	c #769FB3",
"i	c #739CB1",
"j	c #709AAF",
"k	c #6D97AD",
"l	c #6A95AB",
"............",
"++++++++++++",
"@@@@@@@@@@@@",
"############",
"$$%&*$$=&-$$",
";;&&&>,&&&';",
"))&&&&&&&&!)",
"~~{&&&&&&]~~",
"^^^/&&&&(^^^",
"__:&&&&&<[__",
"}|&&&&&&&12}",
"34&&&56&&&73",
"889&088a&b88",
"cccdcccceccc",
"ffffffffffff",
"gggggggggggg",
"hhhhhhhhhhhh",
"iiiiiiiiiiii",
"jjjjjjjjjjjj",
"kkkkkkkkkkkk",
"llllllllllll"};
