/* XPM */
static char * hide_pressed_xpm[] = {
"14 21 60 1",
" 	c None",
".	c #DDDDDD",
"+	c #DCDFE0",
"@	c #DBE0E3",
"#	c #DAE2E5",
"$	c #D9E3E8",
"%	c #D6E0E8",
"&	c #D8E4EA",
"*	c #AFCEDA",
"=	c #658B98",
"-	c #C2DAE2",
";	c #D4DBE5",
">	c #D8E2E9",
",	c #A0C4D3",
"'	c #A6C9D6",
")	c #D4E0E8",
"!	c #D1D6E3",
"~	c #D6DCE6",
"{	c #B8D0DC",
"]	c #86B8C9",
"^	c #C5D5E0",
"/	c #D5DBE5",
"(	c #CFD1E0",
"_	c #D1D5E3",
":	c #D5D8E4",
"<	c #9EC3D2",
"[	c #ACC9D7",
"}	c #D2D6E3",
"|	c #CCCCDD",
"1	c #CECFDF",
"2	c #CFCFDF",
"3	c #CBD2E0",
"4	c #8DBBCC",
"5	c #94BECE",
"6	c #C8D0DF",
"7	c #C9C9DA",
"8	c #CBCBDC",
"9	c #CACADB",
"0	c #CECBDC",
"a	c #B9CBDA",
"b	c #B5C9D8",
"c	c #C5C5D7",
"d	c #C6C6D8",
"e	c #C8C8D9",
"f	c #A7C7D5",
"g	c #99C0D0",
"h	c #C8C8DA",
"i	c #C2C2D3",
"j	c #C2C2D4",
"k	c #C2C4D4",
"l	c #BFC6D5",
"m	c #C3C2D3",
"n	c #C3C3D4",
"o	c #BFBFD0",
"p	c #BBBBCC",
"q	c #B8B8CC",
"r	c #B5B5CC",
"s	c #B2B2CC",
"t	c #AEAECC",
"u	c #ABABCC",
"..............",
"++++++++++++++",
"@@@@@@@@@@@@@@",
"##############",
"$$$$$$$$$$$$$$",
"%%%%%%%%%%%%%&",
"%%*========-%%",
";;>,======');;",
"!~~{]=====^/!!",
"(__:<====[}_((",
"|11234==5621||",
"78890a==b09887",
"cddddefghddddc",
"iijiiiklmiinni",
"oooooooooooooo",
"pppppppppppppp",
"qqqqqqqqqqqqqq",
"rrrrrrrrrrrrrr",
"ssssssssssssss",
"tttttttttttttt",
"uuuuuuuuuuuuuu"};
