/* XPM */
static char * minimize_active_xpm[] = {
"14 21 46 1",
" 	c None",
".	c #DDDDDD",
"+	c #DCDFE0",
"@	c #DBE0E3",
"#	c #DAE2E5",
"$	c #D9E3E8",
"%	c #9FC6D3",
"&	c #80B4C6",
"*	c #AACCD8",
"=	c #D8E4EA",
"-	c #D2E1E8",
";	c #86B8C9",
">	c #87B9CA",
",	c #D3E2E8",
"'	c #D6E0E8",
")	c #BDD6E0",
"!	c #BDD5E0",
"~	c #D4DBE5",
"{	c #9FC5D3",
"]	c #98C2D1",
"^	c #D1D6E3",
"/	c #CCD6E2",
"(	c #81B5C6",
"_	c #C8D5E2",
":	c #CFD1E0",
"<	c #BAD0DD",
"[	c #ADCCD8",
"}	c #CCCCDD",
"|	c #9EC4D3",
"1	c #8CBBCB",
"2	c #CBCEDE",
"3	c #C9C9DA",
"4	c #C6CDDC",
"5	c #BBCEDB",
"6	c #C5C5D7",
"7	c #B6CCD9",
"8	c #9DC3D2",
"9	c #C2C2D3",
"0	c #C1C6D5",
"a	c #BFBFD0",
"b	c #BBBBCC",
"c	c #B8B8CC",
"d	c #B5B5CC",
"e	c #B2B2CC",
"f	c #AEAECC",
"g	c #ABABCC",
"..............",
"++++++++++++++",
"@@@@@@@@@@@@@@",
"##############",
"$%&&&&&&&&&&*$",
"=-;&&&&&&&&>,=",
"'')&&&&&&&&!''",
"~~~{&&&&&&]~~~",
"^^^/;&&&&(_^^^",
"::::<&&&&[::::",
"}}}}}|&&12}}}}",
"333334;&533333",
"66666678666666",
"99999990999999",
"aaaaaaaaaaaaaa",
"bbbbbbbbbbbbbb",
"cccccccccccccc",
"dddddddddddddd",
"eeeeeeeeeeeeee",
"ffffffffffffff",
"gggggggggggggg"};
