/* XPM */
static char * top_right_active_xpm[] = {
"8 21 24 1",
" 	c None",
".	c #DDDDDD",
"+	c #DCDCDC",
"@	c #DCDFE0",
"#	c #DBE0E3",
"$	c #DAE2E5",
"%	c #DAE2E6",
"&	c #D9E3E8",
"*	c #D8E4EA",
"=	c #D6E0E8",
"-	c #D4DBE5",
";	c #D1D6E3",
">	c #CFD1E0",
",	c #CCCCDD",
"'	c #C9C9DA",
")	c #C5C5D7",
"!	c #C2C2D3",
"~	c #BFBFD0",
"{	c #BBBBCC",
"]	c #B8B8CC",
"^	c #B5B5CC",
"/	c #B2B2CC",
"(	c #AEAECC",
"_	c #ABABCC",
".++     ",
"@@@@@   ",
"######  ",
"$$$$$$% ",
"&&&&&&& ",
"********",
"========",
"--------",
";;;;;;;;",
">>>>>>>>",
",,,,,,,,",
"''''''''",
"))))))))",
"!!!!!!!!",
"~~~~~~~~",
"{{{{{{{{",
"]]]]]]]]",
"^^^^^^^^",
"////////",
"((((((((",
"________"};
