<?xml version="1.0" encoding="UTF-8" standalone="no"?>
<!-- Created with Inkscape (http://www.inkscape.org/) -->

<svg
   xmlns:dc="http://purl.org/dc/elements/1.1/"
   xmlns:cc="http://creativecommons.org/ns#"
   xmlns:rdf="http://www.w3.org/1999/02/22-rdf-syntax-ns#"
   xmlns:svg="http://www.w3.org/2000/svg"
   xmlns="http://www.w3.org/2000/svg"
   xmlns:sodipodi="http://sodipodi.sourceforge.net/DTD/sodipodi-0.dtd"
   xmlns:inkscape="http://www.inkscape.org/namespaces/inkscape"
   width="18"
   height="18"
   viewBox="0 0 18 18"
   id="svg5995"
   version="1.1"
   inkscape:version="0.91 r13725"
   sodipodi:docname="message-close-hover.svg">
  <defs
     id="defs5997" />
  <sodipodi:namedview
     id="base"
     pagecolor="#ffffff"
     bordercolor="#666666"
     borderopacity="1.0"
     inkscape:pageopacity="0.0"
     inkscape:pageshadow="2"
     inkscape:zoom="25.803468"
     inkscape:cx="10.810352"
     inkscape:cy="8.34375"
     inkscape:document-units="px"
     inkscape:current-layer="layer1"
     showgrid="true"
     units="px"
     inkscape:snap-bbox="true"
     inkscape:bbox-paths="true"
     inkscape:snap-bbox-edge-midpoints="true"
     inkscape:bbox-nodes="true"
     inkscape:window-width="1914"
     inkscape:window-height="1030"
     inkscape:window-x="0"
     inkscape:window-y="26"
     inkscape:window-maximized="1">
    <inkscape:grid
       type="xygrid"
       id="grid6543" />
  </sodipodi:namedview>
  <metadata
     id="metadata6000">
    <rdf:RDF>
      <cc:Work
         rdf:about="">
        <dc:format>image/svg+xml</dc:format>
        <dc:type
           rdf:resource="http://purl.org/dc/dcmitype/StillImage" />
        <dc:title />
      </cc:Work>
    </rdf:RDF>
  </metadata>
  <g
     inkscape:label="Ebene 1"
     inkscape:groupmode="layer"
     id="layer1"
     transform="translate(0,-1034.3622)">
    <rect
       style="opacity:1;fill:#ffffff;fill-opacity:1;stroke:none;stroke-width:1.60000002;stroke-linecap:round;stroke-linejoin:round;stroke-miterlimit:4;stroke-dasharray:none;stroke-opacity:1"
       id="rect4152"
       width="8"
       height="8"
       x="5"
       y="1039.3622"
       ry="1" />
    <path
       inkscape:connector-curvature="0"
       style="fill:#88aa00;fill-opacity:1;stroke:none"
       d="m 6.75,1035.5497 0,1.125 -2.2500001,0 0,1.125 -2.2499999,0 0,2.25 -1.125,0 0,2.25 -1.125,0 0,2.25 1.125,0 0,2.25 1.125,0 0,2.25 2.2499999,0 0,1.125 2.2500001,0 0,1.125 2.2499999,0 2.2500001,0 0,-1.125 2.25,0 0,-1.125 2.25,0 0,-2.25 1.124999,0 0,-2.25 1.125001,0 0,-2.25 -1.125001,0 0,-2.25 -1.124999,0 0,-2.25 -2.25,0 0,-1.125 -2.25,0 0,-1.125 -2.2500001,0 -2.2499999,0 z m -1.1250001,4.5 1.1250001,0 0,1.125 1.1249999,0 0,1.125 1.125,0 1.1250001,0 0,-1.125 1.125,0 0,-1.125 1.125,0 0,1.125 -1.125,0 0,1.125 -1.125,0 0,1.125 0,1.125 1.125,0 0,1.125 1.125,0 0,1.125 -1.125,0 0,-1.125 -1.125,0 0,-1.125 -1.1250001,0 -1.125,0 0,1.125 -1.1249999,0 0,1.125 -1.1250001,0 0,-1.125 1.1250001,0 0,-1.125 1.1249999,0 0,-1.125 0,-1.125 -1.1249999,0 0,-1.125 -1.1250001,0 0,-1.125 z"
       id="rect3082" />
  </g>
</svg>
