/* XPM */
static char * close_active_xpm[] = {
"12 21 49 1",
" 	c None",
".	c #DDDDDD",
"+	c #DCDFE0",
"@	c #DBE0E3",
"#	c #DAE2E5",
"$	c #D9E3E8",
"%	c #80B4C6",
"&	c #96C0CE",
"*	c #D0DEE4",
"=	c #D1DFE4",
"-	c #D8E4EA",
";	c #88B8C9",
">	c #8EBCCC",
",	c #D0E0E7",
"'	c #CEDEE6",
")	c #8DBBCB",
"!	c #87B8C8",
"~	c #D6E0E8",
"{	c #89B9CA",
"]	c #85B6C8",
"^	c #D4DBE5",
"/	c #84B6C7",
"(	c #86B7C9",
"_	c #D1D6E3",
":	c #81B4C6",
"<	c #82B5C6",
"[	c #CFD1E0",
"}	c #84B5C7",
"|	c #CDD0E0",
"1	c #CCCCDD",
"2	c #83B5C7",
"3	c #88B7C9",
"4	c #CBCCDD",
"5	c #C9C9DA",
"6	c #8EB8CA",
"7	c #C4C8D8",
"8	c #81B5C6",
"9	c #C5C5D7",
"0	c #90B8CA",
"a	c #C1C4D6",
"b	c #C2C2D3",
"c	c #BAC1D1",
"d	c #BFBFD0",
"e	c #BBBBCC",
"f	c #B8B8CC",
"g	c #B5B5CC",
"h	c #B2B2CC",
"i	c #AEAECC",
"j	c #ABABCC",
"............",
"++++++++++++",
"@@@@@@@@@@@@",
"############",
"$$%&*$$=%%$$",
"-%;%>,')%!%-",
"~~%%%){%%]~~",
"^^^/%%%%(^^^",
"____:%%<____",
"[[[}%%%%%|[[",
"112%%3:%%%41",
"5%:%6778%%%5",
"99%0a999%%99",
"bbbbbbbbcbbb",
"dddddddddddd",
"eeeeeeeeeeee",
"ffffffffffff",
"gggggggggggg",
"hhhhhhhhhhhh",
"iiiiiiiiiiii",
"jjjjjjjjjjjj"};
