/* XPM */
static char * close_pressed_xpm[] = {
"12 21 47 1",
" 	c None",
".	c #DDDDDD",
"+	c #DCDFE0",
"@	c #DBE0E3",
"#	c #DAE2E5",
"$	c #D9E3E8",
"%	c #D8E4EA",
"&	c #658B98",
"*	c #A6C9D4",
"=	c #D8E2E7",
"-	c #C7D9E0",
";	c #C5D8E0",
">	c #D6E0E8",
",	c #A9CBD7",
"'	c #BED6E0",
")	c #D4DBE5",
"!	c #B2CBD9",
"~	c #94BDCE",
"{	c #D3DCE6",
"]	c #D1D6E3",
"^	c #B9CCDA",
"/	c #8AB9C9",
"(	c #D5D8E5",
"_	c #D2D7E4",
":	c #CFD1E0",
"<	c #C5CDDD",
"[	c #99BDCE",
"}	c #CCCCDD",
"|	c #97BBCD",
"1	c #9FBDCE",
"2	c #C9C9DA",
"3	c #98BACC",
"4	c #C2C5D7",
"5	c #C7C6D8",
"6	c #AFC0D2",
"7	c #A9BED0",
"8	c #C5C5D7",
"9	c #C2C2D3",
"0	c #C3C3D4",
"a	c #BCC1D2",
"b	c #BFBFD0",
"c	c #BBBBCC",
"d	c #B8B8CC",
"e	c #B5B5CC",
"f	c #B2B2CC",
"g	c #AEAECC",
"h	c #ABABCC",
"............",
"++++++++++++",
"@@@@@@@@@@@@",
"############",
"$$$$$$$$$$$$",
"%%%&*=$-&;%%",
">>&&&,'&&&>>",
")))!&&&&~{))",
"]]]]^&&/(_]]",
":::<&&&&[:::",
"}}&&&|1&&&}}",
"222&3456&722",
"888888888888",
"90909999a999",
"bbbbbbbbbbbb",
"cccccccccccc",
"dddddddddddd",
"eeeeeeeeeeee",
"ffffffffffff",
"gggggggggggg",
"hhhhhhhhhhhh"};
