/* XPM */
static char * hide_inactive_xpm[] = {
"14 21 50 1",
" 	c None",
".	c #A8C7D3",
"+	c #A4C4D1",
"@	c #A1C2CF",
"#	c #9EBFCD",
"$	c #9BBDCB",
"%	c #BDCED4",
"&	c #98BAC9",
"*	c #9BBBC9",
"=	c #BBCCD2",
"-	c #BCCDD3",
";	c #9ABBC9",
">	c #95B8C7",
",	c #A5BFC9",
"'	c #A7C0CA",
")	c #92B5C5",
"!	c #B2C5CD",
"~	c #B2C5CC",
"{	c #92B6C6",
"]	c #8FB3C3",
"^	c #94B5C3",
"/	c #B9CAD0",
"(	c #B8C9CF",
"_	c #96B6C4",
":	c #8CB0C1",
"<	c #9CB7C4",
"[	c #BACBD1",
"}	c #A2BBC5",
"|	c #89AEBF",
"1	c #8AAEBF",
"2	c #B6C8CF",
"3	c #BACAD0",
"4	c #8BAFC0",
"5	c #85ABBD",
"6	c #8AAEBE",
"7	c #B9CAD1",
"8	c #95B3C1",
"9	c #82A9BB",
"0	c #96B4C0",
"a	c #AABFC7",
"b	c #84AABC",
"c	c #7FA6B9",
"d	c #83A9BB",
"e	c #7CA4B7",
"f	c #79A1B5",
"g	c #769FB3",
"h	c #739CB1",
"i	c #709AAF",
"j	c #6D97AD",
"k	c #6A95AB",
"..............",
"++++++++++++++",
"@@@@@@@@@@@@@@",
"##############",
"$%%%%%%%%%%%%$",
"&*=--%%%%%%=;&",
">>,=--%-%-='>>",
")))!--%%%-~{))",
"]]]^/%%--(_]]]",
"::::<[%--}::::",
"||||123=[4||||",
"55555673855555",
"9999990ab99999",
"cccccccdcccccc",
"eeeeeeeeeeeeee",
"ffffffffffffff",
"gggggggggggggg",
"hhhhhhhhhhhhhh",
"iiiiiiiiiiiiii",
"jjjjjjjjjjjjjj",
"kkkkkkkkkkkkkk"};
