/* XPM */
static char * hide_active_xpm[] = {
"14 21 46 1",
" 	c None",
".	c #DDDDDD",
"+	c #DCDFE0",
"@	c #DBE0E3",
"#	c #DAE2E5",
"$	c #D9E3E8",
"%	c #9FC6D3",
"&	c #80B4C6",
"*	c #AACCD8",
"=	c #D8E4EA",
"-	c #86B8C9",
";	c #87B9CA",
">	c #D4E3E9",
",	c #D6E0E8",
"'	c #BDD5E0",
")	c #D4DBE5",
"!	c #9FC5D3",
"~	c #98C2D1",
"{	c #D1D6E3",
"]	c #CDD6E2",
"^	c #81B5C6",
"/	c #C8D6E2",
"(	c #CFD1E0",
"_	c #BAD0DD",
":	c #ADCCD8",
"<	c #CCCCDD",
"[	c #CDCDDD",
"}	c #9EC4D3",
"|	c #8CBBCB",
"1	c #CBCEDE",
"2	c #C9C9DA",
"3	c #C6CDDC",
"4	c #BBCEDC",
"5	c #C5C5D7",
"6	c #B6CCD9",
"7	c #9DC3D2",
"8	c #C2C2D3",
"9	c #C3C3D3",
"0	c #C2C7D5",
"a	c #BFBFD0",
"b	c #BBBBCC",
"c	c #B8B8CC",
"d	c #B5B5CC",
"e	c #B2B2CC",
"f	c #AEAECC",
"g	c #ABABCC",
"..............",
"++++++++++++++",
"@@@@@@@@@@@@@@",
"##############",
"$%&&&&&&&&&&*$",
"==-&&&&&&&&;>=",
",,,&&&&&&&&',,",
")))!&&&&&&~)))",
"{{{]-&&&&^/{{{",
"((((_&&&&:((((",
"<<<<[}&&|1<<<<",
"222223-&422222",
"55555567555555",
"88888890888888",
"aaaaaaaaaaaaaa",
"bbbbbbbbbbbbbb",
"cccccccccccccc",
"dddddddddddddd",
"eeeeeeeeeeeeee",
"ffffffffffffff",
"gggggggggggggg"};
