/* XPM */
static char * maximize_toggled_pressed_xpm[] = {
"15 21 38 1",
" 	c None",
".	c #DDDDDD",
"+	c #DCDFE0",
"@	c #DBE0E3",
"#	c #DAE2E5",
"$	c #D7E1E4",
"%	c #D5E0E4",
"&	c #D4DFE3",
"*	c #D9E1E5",
"=	c #D9E3E8",
"-	c #D8E4EA",
";	c #BBBBCC",
">	c #D1D6E3",
",	c #D6E0E8",
"'	c #658B98",
")	c #D4DBE5",
"!	c #D2DAE5",
"~	c #CFD1E0",
"{	c #C8CEDE",
"]	c #D4DAE5",
"^	c #CCCCDD",
"/	c #C5CADB",
"(	c #D1D5E2",
"_	c #C9C9DA",
":	c #C2C7D9",
"<	c #CED0DE",
"[	c #C5C5D7",
"}	c #BFC4D6",
"|	c #C6C8D8",
"1	c #C2C2D3",
"2	c #C0C1D3",
"3	c #C1C1D3",
"4	c #BFBFD0",
"5	c #B8B8CC",
"6	c #B5B5CC",
"7	c #B2B2CC",
"8	c #AEAECC",
"9	c #ABABCC",
"...............",
"+++++++++++++++",
"@@@@@@@@@@@@@@@",
"#####$$$$$%&*##",
"===============",
"-----;>>>>>>>--",
",,,,,;'''''';,,",
")!!!!;'''''';))",
">>>;;;;;;;'';>>",
"~{{;''''']'';~~",
"^//;'''''('';^^",
"_::;'''''<'';__",
"[}};'''''|'';[[",
"122;''''';33111",
"444444444;44444",
";;;;;;;;;;;;;;;",
"555555555555555",
"666666666666666",
"777777777777777",
"888888888888888",
"999999999999999"};
