/* XPM */
static char * maximize_active_xpm[] = {
"13 21 33 1",
" 	c None",
".	c #DDDDDD",
"+	c #DCDFE0",
"@	c #DBE0E3",
"#	c #DAE2E5",
"$	c #D9E3E8",
"%	c #85B6C8",
"&	c #D8E4EA",
"*	c #81B5C7",
"=	c #80B4C6",
"-	c #D6E0E8",
";	c #D4DBE5",
">	c #D1D6E3",
",	c #82B5C7",
"'	c #CED4E1",
")	c #CFD1E0",
"!	c #CDD0DF",
"~	c #CCCCDD",
"{	c #C8CBDB",
"]	c #C9C9DA",
"^	c #C3C7D8",
"/	c #C5C5D7",
"(	c #81B4C7",
"_	c #C2C4D6",
":	c #C2C2D3",
"<	c #BEC1D2",
"[	c #BFBFD0",
"}	c #BBBBCC",
"|	c #B8B8CC",
"1	c #B5B5CC",
"2	c #B2B2CC",
"3	c #AEAECC",
"4	c #ABABCC",
".............",
"+++++++++++++",
"@@@@@@@@@@@@@",
"#############",
"$%%%%%%%%%%$$",
"&*=========&&",
"-==========--",
";*=;;;;;;==;;",
">,='>>>>>==>>",
"),=!)))))==))",
"~,={~~~~~==~~",
"],=^]]]]]==]]",
"/(=_/////==//",
":<<<:::::<<<:",
"[[[[[[[[[[[[[",
"}}}}}}}}}}}}}",
"|||||||||||||",
"1111111111111",
"2222222222222",
"3333333333333",
"4444444444444"};
