/* XPM */
static char * left_top_active_xpm[] = {
"19 21 31 1",
" 	c None",
".	c #B8BABB",
"+	c #CDCECF",
"@	c #D3D3D4",
"#	c #DDDDDD",
"$	c #CCD0D1",
"%	c #DCDFE0",
"&	c #D8DDE0",
"*	c #DBE0E3",
"=	c #CCD4D7",
"-	c #DAE2E5",
";	c #D9E3E8",
">	c #B7C2C8",
",	c #D8E4EA",
"'	c #CDD7DF",
")	c #D6E0E8",
"!	c #D0D7E1",
"~	c #D4DBE5",
"{	c #D1D6E3",
"]	c #CFD1E0",
"^	c #CCCCDD",
"/	c #C9C9DA",
"(	c #C5C5D7",
"_	c #C2C2D3",
":	c #BFBFD0",
"<	c #BBBBCC",
"[	c #B8B8CC",
"}	c #B5B5CC",
"|	c #B2B2CC",
"1	c #AEAECC",
"2	c #ABABCC",
"     .+@###########",
"   $%%%%%%%%%%%%%%%",
"  &****************",
" =-----------------",
" ;;;;;;;;;;;;;;;;;;",
">,,,,,,,,,,,,,,,,,,",
"'))))))))))))))))))",
"!~~~~~~~~~~~~~~~~~~",
"{{{{{{{{{{{{{{{{{{{",
"]]]]]]]]]]]]]]]]]]]",
"^^^^^^^^^^^^^^^^^^^",
"///////////////////",
"(((((((((((((((((((",
"___________________",
":::::::::::::::::::",
"<<<<<<<<<<<<<<<<<<<",
"[[[[[[[[[[[[[[[[[[[",
"}}}}}}}}}}}}}}}}}}}",
"|||||||||||||||||||",
"1111111111111111111",
"2222222222222222222"};
