/* XPM */
static char * maximize_toggled_active_xpm[] = {
"15 21 40 1",
" 	c None",
".	c #DDDDDD",
"+	c #DCDFE0",
"@	c #DBE0E3",
"#	c #DAE2E5",
"$	c #D7E1E4",
"%	c #D5E0E4",
"&	c #D4DFE3",
"*	c #D9E1E5",
"=	c #D9E3E8",
"-	c #80B4C6",
";	c #D8E4EA",
">	c #D6E0E8",
",	c #D4DBE5",
"'	c #D2DAE5",
")	c #D3DAE5",
"!	c #D1D6E3",
"~	c #C9D3E1",
"{	c #CFD5E2",
"]	c #CFD1E0",
"^	c #C8CEDE",
"/	c #CDD1DF",
"(	c #CCCCDD",
"_	c #C5CADB",
":	c #CACCDC",
"<	c #C9C9DA",
"[	c #C2C7D9",
"}	c #C7C9D9",
"|	c #C5C5D7",
"1	c #BFC4D6",
"2	c #C3C5D6",
"3	c #C2C2D3",
"4	c #C0C1D3",
"5	c #BFBFD0",
"6	c #BBBBCC",
"7	c #B8B8CC",
"8	c #B5B5CC",
"9	c #B2B2CC",
"0	c #AEAECC",
"a	c #ABABCC",
"...............",
"+++++++++++++++",
"@@@@@@@@@@@@@@@",
"#####$$$$$%&*##",
"=====--------==",
";;;;;--------;;",
">>>>>>>>>>--->>",
",'-------)---,,",
"!~-------{---!!",
"]^-------/---]]",
"(_-------:---((",
"<[-------}---<<",
"|1-------2|||||",
"34-------333333",
"555555555555555",
"666666666666666",
"777777777777777",
"888888888888888",
"999999999999999",
"000000000000000",
"aaaaaaaaaaaaaaa"};
