/* XPM */
static char * maximize_prelight_xpm[] = {
"13 21 29 1",
" 	c None",
".	c #DDDDDD",
"+	c #DCDFE0",
"@	c #DBE0E3",
"#	c #DAE2E5",
"$	c #D9E3E8",
"%	c #FFFFFF",
"&	c #D8E4EA",
"*	c #D6E0E8",
"=	c #D4DBE5",
"-	c #D1D6E3",
";	c #CED4E1",
">	c #CFD1E0",
",	c #CDD0DF",
"'	c #CCCCDD",
")	c #C8CBDB",
"!	c #C9C9DA",
"~	c #C3C7D8",
"{	c #C5C5D7",
"]	c #C2C4D6",
"^	c #C2C2D3",
"/	c #BEC1D2",
"(	c #BFBFD0",
"_	c #BBBBCC",
":	c #B8B8CC",
"<	c #B5B5CC",
"[	c #B2B2CC",
"}	c #AEAECC",
"|	c #ABABCC",
".............",
"+++++++++++++",
"@@@@@@@@@@@@@",
"#############",
"$%%%%%%%%%%$$",
"&%%%%%%%%%%&&",
"*%%%%%%%%%%**",
"=%%======%%==",
"-%%;-----%%--",
">%%,>>>>>%%>>",
"'%%)'''''%%''",
"!%%~!!!!!%%!!",
"{%%]{{{{{%%{{",
"^///^^^^^///^",
"(((((((((((((",
"_____________",
":::::::::::::",
"<<<<<<<<<<<<<",
"[[[[[[[[[[[[[",
"}}}}}}}}}}}}}",
"|||||||||||||"};
