/* XPM */
static char * close_prelight_xpm[] = {
"12 21 32 1",
" 	c None",
".	c #DDDDDD",
"+	c #DCDFE0",
"@	c #DBE0E3",
"#	c #DAE2E5",
"$	c #D9E3E8",
"%	c #FFFFFF",
"&	c #D0DEE4",
"*	c #D1DFE4",
"=	c #D8E4EA",
"-	c #D0E0E7",
";	c #CEDEE6",
">	c #D6E0E8",
",	c #D4DBE5",
"'	c #D1D6E3",
")	c #CFD1E0",
"!	c #CDD0E0",
"~	c #CCCCDD",
"{	c #CBCCDD",
"]	c #C9C9DA",
"^	c #C4C8D8",
"/	c #C5C5D7",
"(	c #C1C4D6",
"_	c #C2C2D3",
":	c #BAC1D1",
"<	c #BFBFD0",
"[	c #BBBBCC",
"}	c #B8B8CC",
"|	c #B5B5CC",
"1	c #B2B2CC",
"2	c #AEAECC",
"3	c #ABABCC",
"............",
"++++++++++++",
"@@@@@@@@@@@@",
"############",
"$$%%&$$*%%$$",
"=%%%%-;%%%%=",
">>%%%%%%%%>>",
",,,%%%%%%,,,",
"''''%%%%''''",
")))%%%%%%!))",
"~~%%%%%%%%{~",
"]%%%%^^%%%%]",
"//%%(///%%//",
"________:___",
"<<<<<<<<<<<<",
"[[[[[[[[[[[[",
"}}}}}}}}}}}}",
"||||||||||||",
"111111111111",
"222222222222",
"333333333333"};
