/* XPM */
static char * hide_prelight_xpm[] = {
"14 21 26 1",
" 	c None",
".	c #DDDDDD",
"+	c #DCDFE0",
"@	c #DBE0E3",
"#	c #DAE2E5",
"$	c #D9E3E8",
"%	c #D1D6E3",
"&	c #FFFFFF",
"*	c #D8E4EA",
"=	c #D4E3E9",
"-	c #D6E0E8",
";	c #D4DBE5",
">	c #CFD1E0",
",	c #CCCCDD",
"'	c #CDCDDD",
")	c #C9C9DA",
"!	c #C5C5D7",
"~	c #C2C2D3",
"{	c #C3C3D3",
"]	c #BFBFD0",
"^	c #BBBBCC",
"/	c #B8B8CC",
"(	c #B5B5CC",
"_	c #B2B2CC",
":	c #AEAECC",
"<	c #ABABCC",
"..............",
"++++++++++++++",
"@@@@@@@@@@@@@@",
"##############",
"$%&&&&&&&&&&&$",
"**%&&&&&&&&&=*",
"---%&&&&&&&---",
";;;%&&&&&&&;;;",
"%%%%%&&&&&%%%%",
">>>>%&&&&&>>>>",
",,,,'%&&&%,,,,",
"))))))%&%)))))",
"!!!!!!!%!!!!!!",
"~~~~~~{~~~~~~~",
"]]]]]]]]]]]]]]",
"^^^^^^^^^^^^^^",
"//////////////",
"((((((((((((((",
"______________",
"::::::::::::::",
"<<<<<<<<<<<<<<"};
