/* XPM */
static char * left_top_inactive_xpm[] = {
"19 21 36 1",
" 	c None",
".	c #568597",
"+	c #789FAF",
"@	c #93B5C3",
"#	c #9FC0CC",
"$	c #A2C2CE",
"%	c #A8C7D3",
"&	c #6591A1",
"*	c #9BBDCA",
"=	c #A4C4D1",
"-	c #648FA0",
";	c #9FC0CD",
">	c #A1C2CF",
",	c #96B8C7",
"'	c #9EBFCD",
")	c #7098A8",
"!	c #9BBDCB",
"~	c #87AABA",
"{	c #98BAC9",
"]	c #90B4C3",
"^	c #95B8C7",
"/	c #90B3C3",
"(	c #92B5C5",
"_	c #8FB3C3",
":	c #8CB0C1",
"<	c #89AEBF",
"[	c #85ABBD",
"}	c #82A9BB",
"|	c #7FA6B9",
"1	c #7CA4B7",
"2	c #79A1B5",
"3	c #769FB3",
"4	c #739CB1",
"5	c #709AAF",
"6	c #6D97AD",
"7	c #6A95AB",
"   .+@#$%%%%%%%%%%%",
"  &*===============",
" -;>>>>>>>>>>>>>>>>",
" ,'''''''''''''''''",
")!!!!!!!!!!!!!!!!!!",
"~{{{{{{{{{{{{{{{{{{",
"]^^^^^^^^^^^^^^^^^^",
"/((((((((((((((((((",
"___________________",
":::::::::::::::::::",
"<<<<<<<<<<<<<<<<<<<",
"[[[[[[[[[[[[[[[[[[[",
"}}}}}}}}}}}}}}}}}}}",
"|||||||||||||||||||",
"1111111111111111111",
"2222222222222222222",
"3333333333333333333",
"4444444444444444444",
"5555555555555555555",
"6666666666666666666",
"7777777777777777777"};
