/* XPM */
static char * maximize_toggled_inactive_xpm[] = {
"15 21 59 1",
" 	c None",
".	c #A8C7D3",
"+	c #A4C4D1",
"@	c #A1C2CF",
"#	c #A2C2CF",
"$	c #A2C2CE",
"%	c #A0C3D0",
"&	c #9EBFCD",
"*	c #B2C2C8",
"=	c #A9C1CA",
"-	c #9BBDCB",
";	c #ABC1C9",
">	c #B1C2C8",
",	c #A7BFC9",
"'	c #98BAC9",
")	c #ACC0C9",
"!	c #A1BDC9",
"~	c #95B8C7",
"{	c #96B9C7",
"]	c #9DBBC7",
"^	c #95B9C8",
"/	c #ABBFC8",
"(	c #9FBBC7",
"_	c #92B5C5",
":	c #95B6C6",
"<	c #93B5C5",
"[	c #AABFC8",
"}	c #9DBAC6",
"|	c #8FB3C3",
"1	c #93B4C4",
"2	c #91B3C3",
"3	c #A9BEC7",
"4	c #9BB8C5",
"5	c #8CB0C1",
"6	c #90B1C2",
"7	c #8EB0C1",
"8	c #A9BDC7",
"9	c #99B6C4",
"0	c #89AEBF",
"a	c #8DB0C0",
"b	c #8BAFBF",
"c	c #9DB7C3",
"d	c #A3BBC4",
"e	c #92B2C1",
"f	c #85ABBD",
"g	c #8AADBE",
"h	c #87ACBD",
"i	c #82A9BB",
"j	c #84AABB",
"k	c #96B3C1",
"l	c #83A9BB",
"m	c #7FA6B9",
"n	c #7CA4B7",
"o	c #79A1B5",
"p	c #769FB3",
"q	c #739CB1",
"r	c #709AAF",
"s	c #6D97AD",
"t	c #6A95AB",
"...............",
"+++++++++++++++",
"@@@@@######$%@@",
"&&&&&*******=&&",
"-----;;;;;>*,--",
"'''''''''')*!''",
"~{]]]]]]]^/*(~~",
"_:*******<[*}__",
"|1*******23*4||",
"56*******78*955",
"0a*******bcde00",
"fg*******hfffff",
"ijkkkkkkkliiiii",
"mmmmmmmmmmmmmmm",
"nnnnnnnnnnnnnnn",
"ooooooooooooooo",
"ppppppppppppppp",
"qqqqqqqqqqqqqqq",
"rrrrrrrrrrrrrrr",
"sssssssssssssss",
"ttttttttttttttt"};
