/* XPM */
static char * maximize_pressed_xpm[] = {
"13 21 29 1",
" 	c None",
".	c #DDDDDD",
"+	c #DCDFE0",
"@	c #DBE0E3",
"#	c #DAE2E5",
"$	c #D9E3E8",
"%	c #D8E4EA",
"&	c #BBBBCC",
"*	c #D6E0E8",
"=	c #658B98",
"-	c #D4DBE5",
";	c #D1D6E3",
">	c #C9D6E1",
",	c #CFD1E0",
"'	c #CCCCDD",
")	c #CECFDF",
"!	c #C9C9DA",
"~	c #CBCADB",
"{	c #CACADB",
"]	c #C5C5D7",
"^	c #C6C6D7",
"/	c #C2C2D3",
"(	c #BEC1D2",
"_	c #BFBFD0",
":	c #B8B8CC",
"<	c #B5B5CC",
"[	c #B2B2CC",
"}	c #AEAECC",
"|	c #ABABCC",
".............",
"+++++++++++++",
"@@@@@@@@@@@@@",
"#############",
"$$$$$$$$$$%$$",
"%&&&&&&&&&&%%",
"*&========&**",
"-&========&--",
";&==&>>&==&;;",
",&==&;;&==&,,",
"'&==&))&==&''",
"!&==&~{&==&!!",
"]&==&^^&==&]]",
"/(&&///&&&&(/",
"_____________",
"&&&&&&&&&&&&&",
":::::::::::::",
"<<<<<<<<<<<<<",
"[[[[[[[[[[[[[",
"}}}}}}}}}}}}}",
"|||||||||||||"};
