/* XPM */
static char * right_top_inactive_xpm[] = {
"8 21 34 1",
" 	c None",
".	c #A3C3CF",
"+	c #A1C1CD",
"@	c #96B8C5",
"#	c #80A7B6",
"$	c #A4C4D1",
"%	c #9DBECB",
"&	c #719BAA",
"*	c #A1C2CF",
"=	c #9FC0CE",
"-	c #7199A9",
";	c #9EBFCD",
">	c #97B9C7",
",	c #638FA0",
"'	c #9BBDCB",
")	c #799FAE",
"!	c #98BAC9",
"~	c #8AADBC",
"{	c #95B8C7",
"]	c #91B4C3",
"^	c #92B5C5",
"/	c #8FB3C3",
"(	c #8CB0C1",
"_	c #89AEBF",
":	c #85ABBD",
"<	c #82A9BB",
"[	c #7FA6B9",
"}	c #7CA4B7",
"|	c #79A1B5",
"1	c #769FB3",
"2	c #739CB1",
"3	c #709AAF",
"4	c #6D97AD",
"5	c #6A95AB",
".+@#    ",
"$$$$%&  ",
"*****=- ",
";;;;;;>,",
"''''''')",
"!!!!!!!~",
"{{{{{{{]",
"^^^^^^^^",
"////////",
"((((((((",
"________",
"::::::::",
"<<<<<<<<",
"[[[[[[[[",
"}}}}}}}}",
"||||||||",
"11111111",
"22222222",
"33333333",
"44444444",
"55555555"};
