/* XPM */
static char * maximize_inactive_xpm[] = {
"13 21 47 1",
" 	c None",
".	c #A8C7D3",
"+	c #A4C4D1",
"@	c #A1C2CF",
"#	c #9EBFCD",
"$	c #9BBDCB",
"%	c #BACBD1",
"&	c #BBCCD2",
"*	c #BCCDD3",
"=	c #9ABCCA",
"-	c #98BAC9",
";	c #BDCED4",
">	c #95B8C7",
",	c #98B9C8",
"'	c #96B9C8",
")	c #92B5C5",
"!	c #ADC0C8",
"~	c #ABBFC8",
"{	c #95B6C5",
"]	c #8FB3C3",
"^	c #96B6C4",
"/	c #94B5C3",
"(	c #8CB0C1",
"_	c #94B4C3",
":	c #90B2C1",
"<	c #89AEBF",
"[	c #91B2C1",
"}	c #8CAFBF",
"|	c #85ABBD",
"1	c #8EB0BF",
"2	c #BACCD2",
"3	c #89ADBE",
"4	c #82A9BB",
"5	c #B9CAD0",
"6	c #BACAD0",
"7	c #8CAEBE",
"8	c #B4C7CF",
"9	c #86ABBC",
"0	c #7EA5B8",
"a	c #7DA4B7",
"b	c #7CA4B7",
"c	c #79A1B5",
"d	c #769FB3",
"e	c #739CB1",
"f	c #709AAF",
"g	c #6D97AD",
"h	c #6A95AB",
".............",
"+++++++++++++",
"@@@@@@@@@@@@@",
"#############",
"$%%&****&%&=$",
"-*;;*;;;*;;--",
">*;**;;;;&;,'",
")**!~~~~~**{)",
"]**^]]]]]*;/]",
"(**_(((((*;:(",
"<&&[<<<<<*;}<",
"|&&1|||||2;3|",
"4567444448;94",
"0000000000000",
"aaaaaaaaaaaab",
"ccccccccccccc",
"ddddddddddddd",
"eeeeeeeeeeeee",
"fffffffffffff",
"ggggggggggggg",
"hhhhhhhhhhhhh"};
