/* XPM */
static char * right_bottom_inactive_xpm[] = {
"19 21 2 1",
" 	c None",
".	c #777777",
"                  .",
"                  .",
"                  .",
"                  .",
"                  .",
"                  .",
"                  .",
"                  .",
"                  .",
"                  .",
"                  .",
"                  .",
"                  .",
"                  .",
"                  .",
"                  .",
"                  .",
"                  .",
"                  .",
"                  .",
"..................."};
