/* XPM */
static char * close_inactive_xpm[] = {
"17 21 78 1",
" 	c None",
".	c #6E6E6E",
"+	c #6F6F6F",
"@	c #717171",
"#	c #727272",
"$	c #747474",
"%	c #C6C6C6",
"&	c #C5C5C5",
"*	c #A5A5A5",
"=	c #737373",
"-	c #878787",
";	c #BDBDBD",
">	c #BEBEBE",
",	c #A4A4A4",
"'	c #7A7A7A",
")	c #A2A2A2",
"!	c #C0C0C0",
"~	c #BFBFBF",
"{	c #777777",
"]	c #757575",
"^	c #8E8E8E",
"/	c #C3C3C3",
"(	c #C7C7C7",
"_	c #C1C1C1",
":	c #3E3E3E",
"<	c #636363",
"[	c #939393",
"}	c #ABABAB",
"|	c #949494",
"1	c #C4C4C4",
"2	c #BCBCBC",
"3	c #323232",
"4	c #262626",
"5	c #797979",
"6	c #686868",
"7	c #848484",
"8	c #C2C2C2",
"9	c #BBBBBB",
"0	c #B9B9B9",
"a	c #272727",
"b	c #787878",
"c	c #7B7B7B",
"d	c #B4B4B4",
"e	c #1E1E1E",
"f	c #3F3F3F",
"g	c #7D7D7D",
"h	c #A7A7A7",
"i	c #B7B7B7",
"j	c #5D5D5D",
"k	c #7F7F7F",
"l	c #808080",
"m	c #B0B0B0",
"n	c #8A8A8A",
"o	c #818181",
"p	c #B6B6B6",
"q	c #8C8C8C",
"r	c #0C0C0C",
"s	c #515151",
"t	c #868686",
"u	c #BABABA",
"v	c #0B0B0B",
"w	c #6B6B6B",
"x	c #828282",
"y	c #5A5A5A",
"z	c #909090",
"A	c #666666",
"B	c #0D0D0D",
"C	c #5E5E5E",
"D	c #9C9C9C",
"E	c #676767",
"F	c #313131",
"G	c #141414",
"H	c #222222",
"I	c #5B5B5B",
"J	c #2A2A2A",
"K	c #2B2B2B",
"L	c #888888",
"M	c #929292",
".................",
"+++++++++++++++++",
"@@@@#@@@@@@@@@@@@",
"$$$%&*$====-;>,=$",
"''')!~*{]]^/(_:''",
"{{{<[~_}'|1(234]{",
"555567>89/%0a3b55",
"ccccc+]/((defcccc",
"ggggggh8((ijggggg",
"kkkklm/!}>%2nkkkk",
"ooo7p/~qrs;(>^ooo",
"tttu1>cvwxy9(/zxt",
"777!2AB=777CD,E77",
"tttFGHctttttIJKtt",
"LLLLLLLLLLLLLLLLL",
"nnnnnnnnnnnnnnnnn",
"qqqqqqqqqqqqqqqqq",
"^^^^^^^^^^^^^^^^^",
"zzzzzzzzzzzzzzzzz",
"MMMMMMMMMMMMMMMMM",
"|||||||||||||||||"};
