/* XPM */
static char * close_prelight_xpm[] = {
"15 21 79 1",
" 	c None",
".	c #89A024",
"+	c #869E23",
"@	c #849D22",
"#	c #829B22",
"$	c #849D25",
"%	c #809A21",
"&	c #B1C176",
"*	c #D1F835",
"=	c #829B24",
"-	c #9EB255",
";	c #7E9921",
">	c #859F2E",
",	c #CFD0CD",
"'	c #819C27",
")	c #A4B762",
"!	c #4F4F4E",
"~	c #62771A",
"{	c #7B9720",
"]	c #687E21",
"^	c #BCBCBB",
"/	c #819C2A",
"(	c #ABBD71",
"_	c #3F403C",
":	c #28310A",
"<	c #79951F",
"[	c #799620",
"}	c #69821E",
"|	c #A8A9A5",
"1	c #31322D",
"2	c #323E0D",
"3	c #789520",
"4	c #77941F",
"5	c #6C861C",
"6	c #93958E",
"7	c #252621",
"8	c #3D4C10",
"9	c #75931E",
"0	c #75931F",
"a	c #C7D2A7",
"b	c #617035",
"c	c #73921E",
"d	c #759421",
"e	c #D4DDB9",
"f	c #8CA449",
"g	c #70901D",
"h	c #759425",
"i	c #DCE4C8",
"j	c #0C0D07",
"k	c #5E644E",
"l	c #8FA655",
"m	c #6E8F1D",
"n	c #76962A",
"o	c #E4EAD5",
"p	c #0A0C04",
"q	c #5A7518",
"r	c #5F6B42",
"s	c #94A961",
"t	c #6C8E1C",
"u	c #98B060",
"v	c #0B0F03",
"w	c #5E7C18",
"x	c #5C6C36",
"y	c #628119",
"z	c #6A8C1C",
"A	c #27330A",
"B	c #101504",
"C	c #1B2407",
"D	c #61801A",
"E	c #485F13",
"F	c #212C09",
"G	c #222D09",
"H	c #62821A",
"I	c #688B1B",
"J	c #65891A",
"K	c #63881A",
"L	c #618719",
"M	c #5F8519",
"N	c #5D8418",
"...............",
"+++++++++++++++",
"@@@@@@@@@@@@@@@",
"###$###########",
"%&***=%%%%-***%",
";>,***';;)***!~",
"{{]^***/(***_:<",
"[[[}|******123[",
"444456****78444",
"99990a****b9999",
"cccde******fccc",
"gghi***jk***lgg",
"mno***pqmr***sm",
"tu***vwtttx***y",
"zzABCDzzzzzEFGH",
"IIIIIIIIIIIIIII",
"JJJJJJJJJJJJJJJ",
"KKKKKKKKKKKKKKK",
"LLLLLLLLLLLLLLL",
"MMMMMMMMMMMMMMM",
"NNNNNNNNNNNNNNN"};
