/* XPM */
static char * close_active_xpm[] = {
"18 21 119 2",
"  	c None",
". 	c #89A024",
"+ 	c #869E23",
"@ 	c #849D22",
"# 	c #829B22",
"$ 	c #849D25",
"% 	c #809A21",
"& 	c #B1C176",
"* 	c #FFFFFE",
"= 	c #FCFCFB",
"- 	c #CFD7B0",
"; 	c #829B24",
"> 	c #9EB255",
", 	c #F1F4E6",
"' 	c #F3F5E9",
") 	c #CBD5A4",
"! 	c #7E9921",
"~ 	c #859F2E",
"{ 	c #CFD0CD",
"] 	c #F6F6F6",
"^ 	c #F5F5F5",
"/ 	c #CFD4BF",
"( 	c #819C27",
"_ 	c #A4B762",
": 	c #F9FBF5",
"< 	c #FFFFFF",
"[ 	c #F7F7F7",
"} 	c #4F4F4E",
"| 	c #62771A",
"1 	c #7B9720",
"2 	c #687E21",
"3 	c #BCBCBB",
"4 	c #F4F4F4",
"5 	c #D8DCCE",
"6 	c #819C2A",
"7 	c #ABBD71",
"8 	c #F9FAF5",
"9 	c #F1F1F1",
"0 	c #3F403C",
"a 	c #28310A",
"b 	c #79951F",
"c 	c #799620",
"d 	c #69821E",
"e 	c #A8A9A5",
"f 	c #F3F3F3",
"g 	c #F9F9F9",
"h 	c #EEEFEA",
"i 	c #F9FAF6",
"j 	c #FEFEFE",
"k 	c #EDEDED",
"l 	c #31322D",
"m 	c #323E0D",
"n 	c #789520",
"o 	c #77941F",
"p 	c #6C861C",
"q 	c #93958E",
"r 	c #FAFAFA",
"s 	c #E7E7E7",
"t 	c #252621",
"u 	c #3D4C10",
"v 	c #75931E",
"w 	c #75931F",
"x 	c #C7D2A7",
"y 	c #F9FAF9",
"z 	c #EBEBEB",
"A 	c #617035",
"B 	c #73921E",
"C 	c #759421",
"D 	c #D4DDB9",
"E 	c #DBDBDB",
"F 	c #F0F0EE",
"G 	c #8CA449",
"H 	c #70901D",
"I 	c #759425",
"J 	c #DCE4C8",
"K 	c #F9F9F7",
"L 	c #F4F5F4",
"M 	c #B3B3B3",
"N 	c #0C0D07",
"O 	c #5E644E",
"P 	c #F2F3F2",
"Q 	c #F2F3F1",
"R 	c #8FA655",
"S 	c #6E8F1D",
"T 	c #76962A",
"U 	c #E4EAD5",
"V 	c #FAFAF8",
"W 	c #9D9D9D",
"X 	c #0A0C04",
"Y 	c #5A7518",
"Z 	c #5F6B42",
"` 	c #F0F1F0",
" .	c #94A961",
"..	c #6C8E1C",
"+.	c #98B060",
"@.	c #F4F5F2",
"#.	c #838382",
"$.	c #0B0F03",
"%.	c #5E7C18",
"&.	c #5C6C36",
"*.	c #C6C7C5",
"=.	c #D2D2D2",
"-.	c #80817B",
";.	c #628119",
">.	c #6A8C1C",
",.	c #27330A",
"'.	c #101504",
").	c #1B2407",
"!.	c #61801A",
"~.	c #485F13",
"{.	c #212C09",
"].	c #222D09",
"^.	c #62821A",
"/.	c #688B1B",
"(.	c #65891A",
"_.	c #63881A",
":.	c #618719",
"<.	c #5F8519",
"[.	c #5D8418",
". . . . . . . . . . . . . . . . . . ",
"+ + + + + + + + + + + + + + + + + + ",
"@ @ @ @ @ @ @ @ @ @ @ @ @ @ @ @ @ @ ",
"# # # # # $ # # # # # # # # # # # # ",
"% % % & * = - ; % % % % > , ' ) % % ",
"! ! ! ~ { ] ^ / ( ! ! _ : < [ } | ! ",
"1 1 1 1 2 3 4 [ 5 6 7 8 < 9 0 a b 1 ",
"c c c c c d e f g h i j k l m n c c ",
"o o o o o o p q r < < s t u o o o o ",
"v v v v v v w x y < < z A v v v v v ",
"B B B B B C D i ] E 4 j F G B B B B ",
"H H H H I J K L M N O P < Q R H H H ",
"S S S T U V f W X Y S Z ` < y  .S S ",
"......+.@.9 #.$.%.......&.*.=.-.;...",
">.>.>.>.,.'.).!.>.>.>.>.>.~.{.].^.>.",
"/./././././././././././././././././.",
"(.(.(.(.(.(.(.(.(.(.(.(.(.(.(.(.(.(.",
"_._._._._._._._._._._._._._._._._._.",
":.:.:.:.:.:.:.:.:.:.:.:.:.:.:.:.:.:.",
"<.<.<.<.<.<.<.<.<.<.<.<.<.<.<.<.<.<.",
"[.[.[.[.[.[.[.[.[.[.[.[.[.[.[.[.[.[."};
