/* XPM */
static char * close_inactive_xpm[] = {
"14 21 80 1",
" 	c None",
".	c #6E6E6E",
"+	c #6F6F6F",
"@	c #717171",
"#	c #727272",
"$	c #949494",
"%	c #C6C6C6",
"&	c #C5C5C5",
"*	c #A5A5A5",
"=	c #747474",
"-	c #737373",
";	c #878787",
">	c #BDBDBD",
",	c #BEBEBE",
"'	c #A4A4A4",
")	c #7A7A7A",
"!	c #A2A2A2",
"~	c #C0C0C0",
"{	c #BFBFBF",
"]	c #777777",
"^	c #757575",
"/	c #8E8E8E",
"(	c #C3C3C3",
"_	c #C7C7C7",
":	c #C1C1C1",
"<	c #3E3E3E",
"[	c #5B5B5B",
"}	c #636363",
"|	c #939393",
"1	c #ABABAB",
"2	c #C4C4C4",
"3	c #BCBCBC",
"4	c #323232",
"5	c #262626",
"6	c #797979",
"7	c #686868",
"8	c #848484",
"9	c #C2C2C2",
"0	c #BBBBBB",
"a	c #B9B9B9",
"b	c #272727",
"c	c #787878",
"d	c #7B7B7B",
"e	c #B4B4B4",
"f	c #1E1E1E",
"g	c #3F3F3F",
"h	c #7D7D7D",
"i	c #A7A7A7",
"j	c #B7B7B7",
"k	c #5D5D5D",
"l	c #7F7F7F",
"m	c #808080",
"n	c #B0B0B0",
"o	c #8A8A8A",
"p	c #818181",
"q	c #B6B6B6",
"r	c #8C8C8C",
"s	c #0C0C0C",
"t	c #515151",
"u	c #868686",
"v	c #BABABA",
"w	c #0B0B0B",
"x	c #6B6B6B",
"y	c #828282",
"z	c #5A5A5A",
"A	c #909090",
"B	c #999999",
"C	c #666666",
"D	c #0D0D0D",
"E	c #5E5E5E",
"F	c #9C9C9C",
"G	c #676767",
"H	c #313131",
"I	c #141414",
"J	c #222222",
"K	c #2A2A2A",
"L	c #2B2B2B",
"M	c #7C7C7C",
"N	c #888888",
"O	c #929292",
"..............",
"++++++++++++++",
"@@#@@@@@@@@@@@",
"$%&*=----;>,'-",
")!~{*]^^/(_:<[",
"]}|{:1)$2_345^",
"6678,90(%ab4c6",
"ddd+^(__efgddd",
"hhhhi9__jkhhhh",
"llmn(~1,%3olll",
"p8q({rst>_,/pp",
"uv2,dwxyz0_(Ay",
"B~3CD-888EF'Gc",
"uHIJduuuuu[KLM",
"NNNNNNNNNNNNNN",
"oooooooooooooo",
"rrrrrrrrrrrrrr",
"//////////////",
"AAAAAAAAAAAAAA",
"OOOOOOOOOOOOOO",
"$$$$$$$$$$$$$$"};
