/* XPM */
static char * close_pressed_xpm[] = {
"18 21 120 2",
"  	c None",
". 	c #89A024",
"+ 	c #869E23",
"@ 	c #849D22",
"# 	c #829B22",
"$ 	c #819A21",
"% 	c #849D25",
"& 	c #809A21",
"* 	c #7E9921",
"= 	c #B1C176",
"- 	c #E6EBD2",
"; 	c #FCFCFB",
"> 	c #CFD7B0",
", 	c #829B24",
"' 	c #9EB255",
") 	c #F1F4E6",
"! 	c #F3F5E9",
"~ 	c #CBD5A4",
"{ 	c #7B9720",
"] 	c #859F2E",
"^ 	c #CFD0CD",
"/ 	c #F6F6F6",
"( 	c #F5F5F5",
"_ 	c #CFD4BF",
": 	c #819C27",
"< 	c #A4B762",
"[ 	c #F9FBF5",
"} 	c #FFFFFF",
"| 	c #F7F7F7",
"1 	c #555E41",
"2 	c #647C1A",
"3 	c #799620",
"4 	c #687E21",
"5 	c #BCBCBB",
"6 	c #F4F4F4",
"7 	c #D8DCCE",
"8 	c #819C2A",
"9 	c #ABBD71",
"0 	c #F9FAF5",
"a 	c #F1F1F1",
"b 	c #6A8C1C",
"c 	c #607F19",
"d 	c #73901D",
"e 	c #77941F",
"f 	c #69821E",
"g 	c #A8A9A5",
"h 	c #F3F3F3",
"i 	c #F9F9F9",
"j 	c #EEEFEA",
"k 	c #F9FAF6",
"l 	c #FEFEFE",
"m 	c #EDEDED",
"n 	c #4D5E24",
"o 	c #75931F",
"p 	c #78951F",
"q 	c #75931E",
"r 	c #6C861C",
"s 	c #93958E",
"t 	c #FAFAFA",
"u 	c #E7E7E7",
"v 	c #607E19",
"w 	c #71901D",
"x 	c #73921E",
"y 	c #C7D2A7",
"z 	c #F9FAF9",
"A 	c #EBEBEB",
"B 	c #647B29",
"C 	c #708F1C",
"D 	c #73921D",
"E 	c #70901D",
"F 	c #759421",
"G 	c #D4DDB9",
"H 	c #DBDBDB",
"I 	c #F0F0EE",
"J 	c #8CA449",
"K 	c #6E8F1D",
"L 	c #759425",
"M 	c #DCE4C8",
"N 	c #F9F9F7",
"O 	c #F4F5F4",
"P 	c #B3B3B3",
"Q 	c #3A4C11",
"R 	c #637735",
"S 	c #F2F3F2",
"T 	c #F2F3F1",
"U 	c #8FA655",
"V 	c #6C8E1C",
"W 	c #76962A",
"X 	c #E4EAD5",
"Y 	c #FAFAF8",
"Z 	c #9D9D9D",
"` 	c #394B0F",
" .	c #618019",
"..	c #5F6B42",
"+.	c #F0F1F0",
"@.	c #94A961",
"#.	c #98B060",
"$.	c #F4F5F2",
"%.	c #838382",
"&.	c #465D12",
"*.	c #607E18",
"=.	c #5C6C36",
"-.	c #C6C7C5",
";.	c #D2D2D2",
">.	c #80817B",
",.	c #628119",
"'.	c #688B1B",
").	c #485F12",
"!.	c #587417",
"~.	c #5A7717",
"{.	c #62821A",
"].	c #4D6614",
"^.	c #546F16",
"/.	c #5B7918",
"(.	c #65891A",
"_.	c #678A1B",
":.	c #63881A",
"<.	c #618719",
"[.	c #5F8519",
"}.	c #5D8418",
". . . . . . . . . . . . . . . . . . ",
"+ + + + + + + + + + + + + + + + + + ",
"@ @ @ @ @ @ @ @ @ @ @ @ @ @ @ @ @ @ ",
"# # # $ $ % $ $ $ # # $ & & & & & # ",
"& & & & & & & & & & & & & & & & & & ",
"* * * = - ; > , & & & & ' ) ! ~ & * ",
"{ { { ] ^ / ( _ : * * < [ } | 1 2 { ",
"3 3 3 { 4 5 6 | 7 8 9 0 } a b c d 3 ",
"e e e 3 3 f g h i j k l m n b o p e ",
"q q q e e e r s t } } u b v w e e q ",
"x x x q q q o y z } } A B C D q q x ",
"E E E x x F G k / H 6 l I J x x x E ",
"K K K E L M N O P Q R S } T U E E K ",
"V V V W X Y h Z `  .K ..+.} z @.K V ",
"b b b #.$.a %.&.*.V V V =.-.;.>.,.b ",
"'.'.'.b ).!.~.{.b b b b b ].^./.{.'.",
"(.(.(._._.(.(.(.(.(.(.(.(.(.(.(.(.(.",
":.:.:.:.:.:.:.:.:.:.:.:.:.:.:.:.:.:.",
"<.<.<.<.<.<.<.<.<.<.<.<.<.<.<.<.<.<.",
"[.[.[.[.[.[.[.[.[.[.[.[.[.[.[.[.[.[.",
"}.}.}.}.}.}.}.}.}.}.}.}.}.}.}.}.}.}."};
