/* XPM */
static char * hide_inactive_xpm[] = {
"16 21 64 1",
" 	c None",
".	c #575757",
"+	c #585858",
"@	c #5A5A5A",
"#	c #636363",
"$	c #656565",
"%	c #5D5D5D",
"&	c #5B5B5B",
"*	c #909090",
"=	c #C7C7C7",
"-	c #B3B3B3",
";	c #838383",
">	c #989898",
",	c #969696",
"'	c #B2B2B2",
")	c #9E9E9E",
"!	c #383838",
"~	c #5F5F5F",
"{	c #A0A0A0",
"]	c #686868",
"^	c #3B3B3B",
"/	c #434343",
"(	c #B7B7B7",
"_	c #C6C6C6",
":	c #2F2F2F",
"<	c #565656",
"[	c #606060",
"}	c #646464",
"|	c #C0C0C0",
"1	c #C1C1C1",
"2	c #626262",
"3	c #9B9B9B",
"4	c #777777",
"5	c #373737",
"6	c #787878",
"7	c #767676",
"8	c #C5C5C5",
"9	c #202020",
"0	c #616161",
"a	c #B1B1B1",
"b	c #4B4B4B",
"c	c #4E4E4E",
"d	c #676767",
"e	c #BFBFBF",
"f	c #8E8E8E",
"g	c #979797",
"h	c #2A2A2A",
"i	c #A2A2A2",
"j	c #C4C4C4",
"k	c #292929",
"l	c #9D9D9D",
"m	c #6C6C6C",
"n	c #414141",
"o	c #6A6A6A",
"p	c #BEBEBE",
"q	c #B0B0B0",
"r	c #212121",
"s	c #545454",
"t	c #6D6D6D",
"u	c #6F6F6F",
"v	c #707070",
"w	c #727272",
"x	c #747474",
"y	c #757575",
"................",
"++++++++++++++++",
"@@#$$$$$$$$$$%@@",
"&*===========-.&",
"%;==>,,,,,,'=)!%",
"~~{=]^^^^^/(_:<~",
"[[}|12[[[[3=45[[",
"2226={22278(9022",
"###})=7#}a=bc###",
"$$$$de|$f=gh$$$$",
"ddddd6=i|jk[dddd",
"]]]]]]l==mn]]]]]",
"ooooooopqroooooo",
"mmmmmmmsr@mmmmmm",
"tttttttttttttttt",
"uuuuuuuuuuuuuuuu",
"vvvvvvvvvvvvvvvv",
"wwwwwwwwwwwwwwww",
"xxxxxxxxxxxxxxxx",
"yyyyyyyyyyyyyyyy",
"4444444444444444"};
