/* XPM */
static char * hide_pressed_xpm[] = {
"16 21 94 2",
"  	c None",
". 	c #614868",
"+ 	c #5F4667",
"@ 	c #5D4366",
"# 	c #5E4466",
"$ 	c #5D4266",
"% 	c #674E70",
"& 	c #695071",
"* 	c #6C5474",
"= 	c #62486B",
"- 	c #5B4165",
"; 	c #AB9EB0",
"> 	c #FFFFFF",
", 	c #E3E1E4",
"' 	c #573F61",
") 	c #5A3F65",
"! 	c #9A8EA0",
"~ 	c #C3C3C3",
"{ 	c #C0C0C0",
"] 	c #E4E4E4",
"^ 	c #CBCBCB",
"/ 	c #45314D",
"( 	c #5B4065",
"_ 	c #593D64",
": 	c #5A3E64",
"< 	c #CBC9CB",
"[ 	c #827E83",
"} 	c #553C5E",
"| 	c #4D3655",
"1 	c #593F61",
"2 	c #4F3957",
"3 	c #EAE9EB",
"4 	c #FEFEFE",
"5 	c #523F59",
"6 	c #573D61",
"7 	c #573C64",
"8 	c #665370",
"9 	c #F6F6F6",
"0 	c #F7F7F7",
"a 	c #634E6C",
"b 	c #B7ACBD",
"c 	c #999999",
"d 	c #432E4B",
"e 	c #563A63",
"f 	c #8D8491",
"g 	c #CAC9CB",
"h 	c #563B63",
"i 	c #786182",
"j 	c #FDFDFD",
"k 	c #EAEAEA",
"l 	c #513A59",
"m 	c #563A62",
"n 	c #553862",
"o 	c #563963",
"p 	c #C9C7C9",
"q 	c #8B828E",
"r 	c #DAD5DD",
"s 	c #5F5A61",
"t 	c #4F3659",
"u 	c #583C63",
"v 	c #533662",
"w 	c #624D6D",
"x 	c #F5F5F5",
"y 	c #614C6B",
"z 	c #9B89A3",
"A 	c #C2C2C2",
"B 	c #47324F",
"C 	c #543862",
"D 	c #523561",
"E 	c #89808E",
"F 	c #CDCBCE",
"G 	c #F3F1F4",
"H 	c #FBFBFB",
"I 	c #423646",
"J 	c #4E325C",
"K 	c #513361",
"L 	c #C7C5C8",
"M 	c #8A8A8A",
"N 	c #432D4C",
"O 	c #523461",
"P 	c #4F3160",
"Q 	c #5E476B",
"R 	c #F3F3F3",
"S 	c #E1E1E1",
"T 	c #4E3060",
"U 	c #493854",
"V 	c #513A58",
"W 	c #492D5A",
"X 	c #4B2C5E",
"Y 	c #4E305F",
"Z 	c #4A2A5E",
"` 	c #49295D",
" .	c #47275D",
"..	c #46255C",
". . . . . . . . . . . . . . . . ",
"+ + + + + + + + + + + + + + + + ",
"@ @ @ @ @ @ @ @ @ @ @ @ # # # # ",
"$ $ $ $ $ $ $ $ $ $ $ $ $ $ $ $ ",
"$ $ % & * & & * * * * * * = $ $ ",
"- ; > > > > > > > > > > > , ' - ",
") ! > > ~ { { { { { { ] > ^ / ( ",
"_ : < > [ } } | 1 $ 2 3 4 5 6 _ ",
"7 7 8 9 0 a 7 7 7 7 b > c d 7 7 ",
"e e e f > g h e e i j k l m e e ",
"n n n o p > q n o r > s t u n n ",
"v v v v w x 9 y z > A B C v v v ",
"D D D D D E > F G H I J D D D D ",
"K K K K K K L > > M N O K K K K ",
"P P P P P P Q R S $ P P P P P P ",
"T T T T T T T U V W T T T T T T ",
"X X X X X X X X Y X X X X X X X ",
"Z Z Z Z Z Z Z Z Z Z Z Z Z Z Z Z ",
"` ` ` ` ` ` ` ` ` ` ` ` ` ` ` ` ",
" . . . . . . . . . . . . . . . .",
"................................"};
