/* XPM */
static char * hide_prelight_xpm[] = {
"16 21 92 2",
"  	c None",
". 	c #614868",
"+ 	c #5F4667",
"@ 	c #5E4466",
"# 	c #5D4266",
"$ 	c #6A5273",
"% 	c #6C5474",
"& 	c #62486B",
"* 	c #5B4165",
"= 	c #B1AD9A",
"- 	c #D2F83D",
"; 	c #D1F83B",
"> 	c #D1F835",
", 	c #D5F848",
"' 	c #D3F843",
") 	c #DEE6B8",
"! 	c #573F61",
"~ 	c #5A3F65",
"{ 	c #9B909D",
"] 	c #D6F84C",
"^ 	c #C3C3C3",
"/ 	c #C0C0C0",
"( 	c #D7F079",
"_ 	c #CDDC8E",
": 	c #36263D",
"< 	c #593D64",
"[ 	c #5A3E64",
"} 	c #CCD5A1",
"| 	c #D1F839",
"1 	c #A9BA5C",
"2 	c #37263E",
"3 	c #423249",
"4 	c #E1FA7F",
"5 	c #3B3A3C",
"6 	c #51375B",
"7 	c #573C64",
"8 	c #665370",
"9 	c #65526E",
"0 	c #B7ACBD",
"a 	c #9EA28F",
"b 	c #32223A",
"c 	c #563A63",
"d 	c #8D8491",
"e 	c #CDE080",
"f 	c #563B63",
"g 	c #786182",
"h 	c #D9F85C",
"i 	c #DCF08B",
"j 	c #333125",
"k 	c #553962",
"l 	c #553862",
"m 	c #563963",
"n 	c #CAD0AB",
"o 	c #D4F843",
"p 	c #97967E",
"q 	c #D7DDB2",
"r 	c #606060",
"s 	c #432C4D",
"t 	c #533662",
"u 	c #624D6D",
"v 	c #D8F65C",
"w 	c #D5F74C",
"x 	c #614C6B",
"y 	c #9B89A3",
"z 	c #C5CF9E",
"A 	c #231729",
"B 	c #523561",
"C 	c #89808E",
"D 	c #CDD99A",
"E 	c #D9F85B",
"F 	c #302F31",
"G 	c #4D315B",
"H 	c #513361",
"I 	c #C9D596",
"J 	c #D2F83C",
"K 	c #8A8A8A",
"L 	c #33203C",
"M 	c #4F3160",
"N 	c #5E476B",
"O 	c #D7F75A",
"P 	c #DDE5BF",
"Q 	c #1D1621",
"R 	c #4E3060",
"S 	c #493854",
"T 	c #201B23",
"U 	c #412850",
"V 	c #4D2E5F",
"W 	c #4B2C5E",
"X 	c #4A2A5E",
"Y 	c #49295D",
"Z 	c #47275D",
"` 	c #46255C",
". . . . . . . . . . . . . . . . ",
"+ + + + + + + + + + + + + + + + ",
"@ @ @ @ @ @ @ @ @ @ @ @ @ @ @ @ ",
"# # $ % % % % % % % % % % & # # ",
"* = - ; > > > > > > > , ' ) ! * ",
"~ { ] - ^ / / / / / / ( - _ : ~ ",
"< [ } | 1 2 2 2 2 2 3 > 4 5 6 < ",
"7 7 8 > > 9 7 7 7 7 0 ] a b 7 7 ",
"c c c d > e f c c g h i j k c c ",
"l l l m n o p l m q > r s l l l ",
"t t t t u v w x y > z A t t t t ",
"B B B B B C , D > E F G B B B B ",
"H H H H H H I J > K L H H H H H ",
"M M M M M M N O P Q M M M M M M ",
"R R R R R R R S T U R R R R R R ",
"V V V V V V V V V V V V V V V V ",
"W W W W W W W W W W W W W W W W ",
"X X X X X X X X X X X X X X X X ",
"Y Y Y Y Y Y Y Y Y Y Y Y Y Y Y Y ",
"Z Z Z Z Z Z Z Z Z Z Z Z Z Z Z Z ",
"` ` ` ` ` ` ` ` ` ` ` ` ` ` ` ` "};
