/* XPM */
static char * hide_active_xpm[] = {
"16 21 87 1",
" 	c None",
".	c #614868",
"+	c #5F4667",
"@	c #5E4466",
"#	c #5D4266",
"$	c #6A5273",
"%	c #6C5474",
"&	c #62486B",
"*	c #5B4165",
"=	c #AB9EB0",
"-	c #FFFFFF",
";	c #E3E1E4",
">	c #573F61",
",	c #5A3F65",
"'	c #9A8EA0",
")	c #C3C3C3",
"!	c #C0C0C0",
"~	c #E4E4E4",
"{	c #CBCBCB",
"]	c #36263D",
"^	c #593D64",
"/	c #5A3E64",
"(	c #CBC9CB",
"_	c #827E83",
":	c #37263E",
"<	c #423249",
"[	c #EAE9EB",
"}	c #FEFEFE",
"|	c #3B3A3C",
"1	c #51375B",
"2	c #573C64",
"3	c #665370",
"4	c #F6F6F6",
"5	c #F7F7F7",
"6	c #65526E",
"7	c #B7ACBD",
"8	c #999999",
"9	c #32223A",
"0	c #563A63",
"a	c #8D8491",
"b	c #CAC9CB",
"c	c #563B63",
"d	c #786182",
"e	c #FDFDFD",
"f	c #EAEAEA",
"g	c #221C24",
"h	c #553962",
"i	c #553862",
"j	c #563963",
"k	c #C9C7C9",
"l	c #8B828E",
"m	c #DAD5DD",
"n	c #606060",
"o	c #432C4D",
"p	c #533662",
"q	c #624D6D",
"r	c #F5F5F5",
"s	c #614C6B",
"t	c #9B89A3",
"u	c #C2C2C2",
"v	c #231729",
"w	c #523561",
"x	c #89808E",
"y	c #CDCBCE",
"z	c #F3F1F4",
"A	c #FBFBFB",
"B	c #302F31",
"C	c #4D315B",
"D	c #513361",
"E	c #C7C5C8",
"F	c #8A8A8A",
"G	c #33203C",
"H	c #4F3160",
"I	c #5E476B",
"J	c #F3F3F3",
"K	c #E1E1E1",
"L	c #1D1621",
"M	c #4E3060",
"N	c #493854",
"O	c #201B23",
"P	c #412850",
"Q	c #4D2E5F",
"R	c #4B2C5E",
"S	c #4A2A5E",
"T	c #49295D",
"U	c #47275D",
"V	c #46255C",
"................",
"++++++++++++++++",
"@@@@@@@@@@@@@@@@",
"##$%%%%%%%%%%&##",
"*=-----------;>*",
",'--)!!!!!!~-{],",
"^/(-_:::::<[}|1^",
"22345622227-8922",
"000a-bc00defgh00",
"iiijk-lijm-noiii",
"ppppqr4st-uvpppp",
"wwwwwx-yzABCwwww",
"DDDDDDE--FGDDDDD",
"HHHHHHIJKLHHHHHH",
"MMMMMMMNOPMMMMMM",
"QQQQQQQQQQQQQQQQ",
"RRRRRRRRRRRRRRRR",
"SSSSSSSSSSSSSSSS",
"TTTTTTTTTTTTTTTT",
"UUUUUUUUUUUUUUUU",
"VVVVVVVVVVVVVVVV"};
