/* XPM */
static char * left_bottom_active_xpm[] = {
"16 16 2 1",
" 	c None",
".	c #4A2A5E",
".               ",
".               ",
".               ",
".               ",
".               ",
".               ",
".               ",
".               ",
".               ",
".               ",
".               ",
".               ",
".               ",
".               ",
".               ",
"................"};
