/* XPM */
static char * left_top_active_xpm[] = {
"19 21 29 1",
" 	c None",
".	c #584565",
"+	c #5B4666",
"@	c #614868",
"#	c #5F4667",
"$	c #5C4466",
"%	c #5E4466",
"&	c #564166",
"*	c #5D4266",
"=	c #5B4165",
"-	c #493D65",
";	c #5A3F65",
">	c #543C64",
",	c #593D64",
"'	c #553C64",
")	c #573C64",
"!	c #563A63",
"~	c #553862",
"{	c #533662",
"]	c #523561",
"^	c #513361",
"/	c #4F3160",
"(	c #4E3060",
"_	c #4D2E5F",
":	c #4B2C5E",
"<	c #4A2A5E",
"[	c #49295D",
"}	c #47275D",
"|	c #46255C",
"      .+@@@@@@@@@@@",
"    ###############",
"  $%%%%%%%%%%%%%%%%",
" &*****************",
" ==================",
"-;;;;;;;;;;;;;;;;;;",
">,,,,,,,,,,,,,,,,,,",
"'))))))))))))))))))",
"!!!!!!!!!!!!!!!!!!!",
"~~~~~~~~~~~~~~~~~~~",
"{{{{{{{{{{{{{{{{{{{",
"]]]]]]]]]]]]]]]]]]]",
"^^^^^^^^^^^^^^^^^^^",
"///////////////////",
"(((((((((((((((((((",
"___________________",
":::::::::::::::::::",
"<<<<<<<<<<<<<<<<<<<",
"[[[[[[[[[[[[[[[[[[[",
"}}}}}}}}}}}}}}}}}}}",
"|||||||||||||||||||"};
