/* XPM */
static char * maximize_inactive_xpm[] = {
"17 21 60 1",
" 	c None",
".	c #575757",
"+	c #585858",
"@	c #5A5A5A",
"#	c #848484",
"$	c #ABABAB",
"%	c #A8A8A8",
"&	c #686868",
"*	c #606060",
"=	c #C3C3C3",
"-	c #C7C7C7",
";	c #A6A6A6",
">	c #5B5B5B",
",	c #676767",
"'	c #B7B7B7",
")	c #3B3B3B",
"!	c #5D5D5D",
"~	c #B6B6B6",
"{	c #333333",
"]	c #5F5F5F",
"^	c #666666",
"/	c #B4B4B4",
"(	c #9B9B9B",
"_	c #C6C6C6",
":	c #929292",
"<	c #353535",
"[	c #707070",
"}	c #1B1B1B",
"|	c #202020",
"1	c #C2C2C2",
"2	c #898989",
"3	c #464646",
"4	c #626262",
"5	c #696969",
"6	c #535353",
"7	c #636363",
"8	c #C4C4C4",
"9	c #474747",
"0	c #6B6B6B",
"a	c #555555",
"b	c #656565",
"c	c #484848",
"d	c #6C6C6C",
"e	c #4A4A4A",
"f	c #6D6D6D",
"g	c #7E7E7E",
"h	c #777777",
"i	c #4B4B4B",
"j	c #6F6F6F",
"k	c #4C4C4C",
"l	c #6A6A6A",
"m	c #6E6E6E",
"n	c #7A7A7A",
"o	c #5E5E5E",
"p	c #404040",
"q	c #4D4D4D",
"r	c #616161",
"s	c #727272",
"t	c #747474",
"u	c #757575",
".................",
"+++++++++++++++++",
"@#$$$$$$$$$$$%&@@",
"*=------------;@>",
",-------------')!",
",-------------~{]",
"^-/((((((((((_:<*",
"&-[}|||||||||1234",
"5-[67777777778297",
"0-[abbbbbbbbb82cb",
"d-[.,,,,,,,,,82e,",
"f-g5hhhhhhhhh82i&",
"j-------------2kl",
"mnoooooooooooopqd",
"f.ppppppppppppprf",
"jjjjjjjjjjjjjjjjj",
"[[[[[[[[[[[[[[[[[",
"sssssssssssssssss",
"ttttttttttttttttt",
"uuuuuuuuuuuuuuuuu",
"hhhhhhhhhhhhhhhhh"};
