/* XPM */
static char * maximize_active_xpm[] = {
"18 21 76 1",
" 	c None",
".	c #614868",
"+	c #5F4667",
"@	c #5E4466",
"#	c #5D4266",
"$	c #B2B7AA",
"%	c #E8F2E0",
"&	c #E5EFDB",
"*	c #7C6F7E",
"=	c #5B4165",
"-	c #68546E",
";	c #FCFEFB",
">	c #FFFFFF",
",	c #D7DBD5",
"'	c #583F62",
")	c #5A3F65",
"!	c #726078",
"~	c #ECECEC",
"{	c #241929",
"]	c #593D64",
"^	c #705E76",
"/	c #E9E9E9",
"(	c #1A121D",
"_	c #573C64",
":	c #675470",
"<	c #E6E6E6",
"[	c #C6C6C6",
"}	c #FDFDFD",
"|	c #BBBBBB",
"1	c #1B131F",
"2	c #563A63",
"3	c #67526F",
"4	c #909090",
"5	c #070508",
"6	c #09060B",
"7	c #F9F9F9",
"8	c #B0B0B0",
"9	c #2C1E33",
"0	c #553862",
"a	c #66506E",
"b	c #3C2846",
"c	c #FBFCFA",
"d	c #2C1D32",
"e	c #533662",
"f	c #644E6E",
"g	c #3B2646",
"h	c #2B1C32",
"i	c #523561",
"j	c #634D6D",
"k	c #3A2645",
"l	c #2A1B32",
"m	c #513361",
"n	c #624C6D",
"o	c #A1A1A1",
"p	c #665F69",
"q	c #7C6E81",
"r	c #FCFDFB",
"s	c #2A1A32",
"t	c #4F3160",
"u	c #604A6C",
"v	c #291931",
"w	c #4E3060",
"x	c #563B66",
"y	c #949A91",
"z	c #787878",
"A	c #525252",
"B	c #281931",
"C	c #4D2E5F",
"D	c #311D3C",
"E	c #1B1021",
"F	c #3C244A",
"G	c #4B2C5E",
"H	c #4A2A5E",
"I	c #49295D",
"J	c #47275D",
"K	c #46255C",
"..................",
"++++++++++++++++++",
"@@@@@@@@@@@@@@@@@@",
"##$%%%%%%%%%%%&*##",
"=-;>>>>>>>>>>>>,'=",
")!>>>>>>>>>>>>>~{)",
"]^>>>>>>>>>>>>>/(]",
"_:><[[[[[[[[[[}|1_",
"23>456666666667892",
"0a>4b000000000c8d0",
"ef>4geeeeeeeeec8he",
"ij>4kiiiiiiiiic8li",
"mn>opqqqqqqqqqr8sm",
"tu>>>>>>>>>>>>>8vt",
"wxyzzzzzzzzzzzzABw",
"CCDEEEEEEEEEEEEEFC",
"GGGGGGGGGGGGGGGGGG",
"HHHHHHHHHHHHHHHHHH",
"IIIIIIIIIIIIIIIIII",
"JJJJJJJJJJJJJJJJJJ",
"KKKKKKKKKKKKKKKKKK"};
