/* XPM */
static char * maximize_toggle_inactive_xpm[] = {
"18 21 77 1",
" 	c None",
".	c #575757",
"+	c #585858",
"@	c #5A5A5A",
"#	c #9A9A9A",
"$	c #B1B1B1",
"%	c #8B8B8B",
"&	c #5B5B5B",
"*	c #C1C1C1",
"=	c #C7C7C7",
"-	c #B6B6B6",
";	c #474747",
">	c #5D5D5D",
",	c #BCBCBC",
"'	c #8D8D8D",
")	c #808080",
"!	c #7F7F7F",
"~	c #7D7D7D",
"{	c #949494",
"]	c #A1A1A1",
"^	c #282828",
"/	c #5F5F5F",
"(	c #606060",
"_	c #9E9E9E",
":	c #AEAEAE",
"<	c #BDBDBD",
"[	c #9F9F9F",
"}	c #A5A5A5",
"|	c #939393",
"1	c #3D3D3D",
"2	c #656565",
"3	c #A2A2A2",
"4	c #383838",
"5	c #787878",
"6	c #C4C4C4",
"7	c #C3C3C3",
"8	c #595959",
"9	c #7E7E7E",
"0	c #626262",
"a	c #757575",
"b	c #303030",
"c	c #A6A6A6",
"d	c #393939",
"e	c #636363",
"f	c #737373",
"g	c #0D0D0D",
"h	c #0F0F0F",
"i	c #6C6C6C",
"j	c #373737",
"k	c #A7A7A7",
"l	c #777777",
"m	c #707070",
"n	c #525252",
"o	c #969696",
"p	c #909090",
"q	c #A8A8A8",
"r	c #3A3A3A",
"s	c #676767",
"t	c #797979",
"u	c #545454",
"v	c #979797",
"w	c #B5B5B5",
"x	c #686868",
"y	c #818181",
"z	c #696969",
"A	c #202020",
"B	c #494949",
"C	c #6A6A6A",
"D	c #7B7B7B",
"E	c #828282",
"F	c #262626",
"G	c #6D6D6D",
"H	c #444444",
"I	c #4A4A4A",
"J	c #6F6F6F",
"K	c #727272",
"L	c #747474",
"..................",
"++++++++++++++++++",
"@@@@@#$$$$$$$$$%@@",
"&&&&&*=========-;&",
">>>>>,'))!!!~~{]^>",
"/(_::<[}}}}}|1234/",
"(56=========789}4(",
"0a===========b)cd0",
"ea=fghhhhhhi=j)kde",
"2l=mn222222o=.pqr2",
"st=mussssssv=w-|rs",
"xt=yztttttt]=bAABx",
"CD===========4CCCC",
"iaECCCCCCCCCCFiiii",
"GG.HHHHHHHHHHIGGGG",
"JJJJJJJJJJJJJJJJJJ",
"mmmmmmmmmmmmmmmmmm",
"KKKKKKKKKKKKKKKKKK",
"LLLLLLLLLLLLLLLLLL",
"aaaaaaaaaaaaaaaaaa",
"llllllllllllllllll"};
