/* XPM */
static char * maximize_pressed_xpm[] = {
"18 21 77 1",
" 	c None",
".	c #614868",
"+	c #5F4667",
"@	c #5E4466",
"#	c #5D4266",
"$	c #5B4165",
"%	c #B2B7AA",
"&	c #E8F2E0",
"*	c #E5EFDB",
"=	c #7C6F7E",
"-	c #5A3F65",
";	c #68546E",
">	c #FCFEFB",
",	c #FFFFFF",
"'	c #D7DBD5",
")	c #583F62",
"!	c #593D64",
"~	c #726078",
"{	c #ECECEC",
"]	c #412E48",
"^	c #573C64",
"/	c #705E76",
"(	c #E9E9E9",
"_	c #3C2B43",
":	c #563A63",
"<	c #675470",
"[	c #E6E6E6",
"}	c #C6C6C6",
"|	c #FDFDFD",
"1	c #BBBBBB",
"2	c #3D2B44",
"3	c #593E64",
"4	c #553862",
"5	c #67526F",
"6	c #909090",
"7	c #332439",
"8	c #34253A",
"9	c #F9F9F9",
"0	c #B0B0B0",
"a	c #45304D",
"b	c #533662",
"c	c #66506E",
"d	c #3C2846",
"e	c #FBFCFA",
"f	c #51395A",
"g	c #523561",
"h	c #644E6E",
"i	c #3B2646",
"j	c #452F4D",
"k	c #513361",
"l	c #634D6D",
"m	c #3A2645",
"n	c #442F4D",
"o	c #4F3160",
"p	c #624C6D",
"q	c #A1A1A1",
"r	c #665F69",
"s	c #7C6E81",
"t	c #FCFDFB",
"u	c #442E4D",
"v	c #4E3060",
"w	c #604A6C",
"x	c #442E4C",
"y	c #4D2E5F",
"z	c #563B66",
"A	c #949A91",
"B	c #787878",
"C	c #525252",
"D	c #432E4C",
"E	c #4B2C5E",
"F	c #473051",
"G	c #3D2A44",
"H	c #3C244A",
"I	c #4A2A5E",
"J	c #49295D",
"K	c #47275D",
"L	c #46255C",
"..................",
"++++++++++++++++++",
"@@@@@@@@@@@@@@@@@@",
"##################",
"$#%&&&&&&&&&&&*=#$",
"-;>,,,,,,,,,,,,')-",
"!~,,,,,,,,,,,,,{]!",
"^/,,,,,,,,,,,,,(_^",
":<,[}}}}}}}}}}|123",
"45,6788888888890a!",
"bc,6d444!!!!44e0fb",
"gh,6ibbbbbbbbbe0jg",
"kl,6mggggggggge0nk",
"op,qrssssssssst0uo",
"vw,,,,,,,,,,,,,0xv",
"yzABBBBBBBBBBBBCDy",
"EyFGGGGGGGGGGGGGHE",
"IIIIIIIIIIIIIIIIII",
"JJJJJJJJJJJJJJJJJJ",
"KKKKKKKKKKKKKKKKKK",
"LLLLLLLLLLLLLLLLLL"};
