/* XPM */
static char * maximize_toggle_pressed_xpm[] = {
"18 21 102 2",
"  	c None",
". 	c #614868",
"+ 	c #5F4667",
"@ 	c #5E4466",
"# 	c #5D4266",
"$ 	c #5B4165",
"% 	c #BBB0BF",
"& 	c #DED8E0",
"* 	c #A798AC",
"= 	c #5A3F65",
"- 	c #F6F5F7",
"; 	c #FFFFFF",
"> 	c #E9E9E9",
", 	c #47334F",
"' 	c #593D64",
") 	c #F0EFF0",
"! 	c #B5B5B5",
"~ 	c #A4A3A4",
"{ 	c #A3A2A3",
"] 	c #A2A1A2",
"^ 	c #A0A0A0",
"/ 	c #BDBDBD",
"( 	c #CFCFCF",
"_ 	c #422553",
": 	c #573C64",
"< 	c #5B3F66",
"[ 	c #BDB2C2",
"} 	c #D8D1DB",
"| 	c #F1EFF1",
"1 	c #CBCACB",
"2 	c #CFCBD1",
"3 	c #D0CCD1",
"4 	c #B6B0B9",
"5 	c #422950",
"6 	c #746878",
"7 	c #CECDCE",
"8 	c #3F264E",
"9 	c #563A63",
"0 	c #7E6988",
"a 	c #FAFAFB",
"b 	c #F9F9F9",
"c 	c #665E6A",
"d 	c #897692",
"e 	c #D1CFD2",
"f 	c #3F264D",
"g 	c #553862",
"h 	c #765F80",
"i 	c #3C3B3C",
"j 	c #887491",
"k 	c #D2D0D3",
"l 	c #3E254D",
"m 	c #533662",
"n 	c #755D80",
"o 	c #939393",
"p 	c #3D234D",
"q 	c #3D234E",
"r 	c #888789",
"s 	c #423E43",
"t 	c #86718F",
"u 	c #D3D1D4",
"v 	c #3E254C",
"w 	c #523561",
"x 	c #735C80",
"y 	c #909090",
"z 	c #432C50",
"A 	c #A99BB1",
"B 	c #6C696D",
"C 	c #9F8EA7",
"D 	c #D4D2D5",
"E 	c #3E244C",
"F 	c #513361",
"G 	c #735B7F",
"H 	c #432B4F",
"I 	c #A99AB0",
"J 	c #E7E7E7",
"K 	c #E5E3E6",
"L 	c #BAB8BB",
"M 	c #3D244C",
"N 	c #4F3160",
"O 	c #72597F",
"P 	c #A5A5A5",
"Q 	c #655270",
"R 	c #B9ADBF",
"S 	c #472A59",
"T 	c #3F2450",
"U 	c #412652",
"V 	c #4E3060",
"W 	c #70587E",
"X 	c #472C57",
"Y 	c #4D2E5F",
"Z 	c #5F4470",
"` 	c #99939D",
" .	c #888888",
"..	c #422752",
"+.	c #4B2C5E",
"@.	c #442755",
"#.	c #442656",
"$.	c #452657",
"%.	c #4A2A5E",
"&.	c #49295D",
"*.	c #47275D",
"=.	c #46255C",
". . . . . . . . . . . . . . . . . . ",
"+ + + + + + + + + + + + + + + + + + ",
"@ @ @ @ @ @ @ @ @ @ @ @ @ @ @ @ @ @ ",
"# # # # # # # # # # # # # # # # # # ",
"$ # # # # % & & & & & & & & & * # $ ",
"= $ $ $ $ - ; ; ; ; ; ; ; ; ; > , = ",
"' = = = = ) ! ~ { { ] ] ^ ^ / ( _ ' ",
": < [ } } | 1 2 2 2 2 3 4 5 6 7 8 : ",
"9 0 a ; ; ; ; ; ; ; ; ; b c d e f 9 ",
"g h ; ; ; ; ; ; ; ; ; ; ; i j k l g ",
"m n ; o p q q q q q q r ; s t u v m ",
"w x ; y z m m m m m m A ; B C D E w ",
"F G ; y H w w w w w w I ; J K L M F ",
"N O ; P Q O O O O O O R ; S T T U N ",
"V W ; ; ; ; ; ; ; ; ; ; ; X N N N V ",
"Y Z `  . . . . . . . . . ...V V V Y ",
"+.Y @.#.#.#.#.#.#.#.#.#.#.$.Y Y Y +.",
"%.%.%.%.%.%.%.%.%.%.%.%.%.%.%.%.%.%.",
"&.&.&.&.&.&.&.&.&.&.&.&.&.&.&.&.&.&.",
"*.*.*.*.*.*.*.*.*.*.*.*.*.*.*.*.*.*.",
"=.=.=.=.=.=.=.=.=.=.=.=.=.=.=.=.=.=."};
