/* XPM */
static char * maximize_toggle_active_xpm[] = {
"18 21 102 2",
"  	c None",
". 	c #614868",
"+ 	c #5F4667",
"@ 	c #5E4466",
"# 	c #5D4266",
"$ 	c #BBB0BF",
"% 	c #DED8E0",
"& 	c #A798AC",
"* 	c #5B4165",
"= 	c #F6F5F7",
"- 	c #FFFFFF",
"; 	c #E9E9E9",
"> 	c #47334F",
", 	c #5A3F65",
"' 	c #F0EFF0",
") 	c #B5B5B5",
"! 	c #A4A3A4",
"~ 	c #A3A2A3",
"{ 	c #A2A1A2",
"] 	c #A0A0A0",
"^ 	c #BDBDBD",
"/ 	c #CFCFCF",
"( 	c #271B2C",
"_ 	c #593D64",
": 	c #5B3F66",
"< 	c #BDB2C2",
"[ 	c #D8D1DB",
"} 	c #F1EFF1",
"| 	c #CBCACB",
"1 	c #CFCBD1",
"2 	c #D0CCD1",
"3 	c #B6B0B9",
"4 	c #3A2A41",
"5 	c #746878",
"6 	c #CECDCE",
"7 	c #34243B",
"8 	c #573C64",
"9 	c #7E6988",
"0 	c #FAFAFB",
"a 	c #F9F9F9",
"b 	c #665E6A",
"c 	c #897692",
"d 	c #D1CFD2",
"e 	c #33233A",
"f 	c #563A63",
"g 	c #765F80",
"h 	c #3C3B3C",
"i 	c #887491",
"j 	c #D2D0D3",
"k 	c #322239",
"l 	c #553862",
"m 	c #755D80",
"n 	c #939393",
"o 	c #0E0C0F",
"p 	c #100D11",
"q 	c #888789",
"r 	c #423E43",
"s 	c #86718F",
"t 	c #D3D1D4",
"u 	c #312038",
"v 	c #533662",
"w 	c #735C80",
"x 	c #909090",
"y 	c #432C50",
"z 	c #A99BB1",
"A 	c #6C696D",
"B 	c #9F8EA7",
"C 	c #D4D2D5",
"D 	c #301F38",
"E 	c #523561",
"F 	c #735B7F",
"G 	c #432B4F",
"H 	c #A99AB0",
"I 	c #E7E7E7",
"J 	c #E5E3E6",
"K 	c #BAB8BB",
"L 	c #2E1E37",
"M 	c #513361",
"N 	c #72597F",
"O 	c #A5A5A5",
"P 	c #655270",
"Q 	c #B9ADBF",
"R 	c #3C3A3C",
"S 	c #19101E",
"T 	c #392444",
"U 	c #4F3160",
"V 	c #70587E",
"W 	c #413E43",
"X 	c #4E3060",
"Y 	c #5F4470",
"Z 	c #99939D",
"` 	c #888888",
" .	c #28242A",
"..	c #4D2E5F",
"+.	c #3E254C",
"@.	c #301D3B",
"#.	c #351F41",
"$.	c #4B2C5E",
"%.	c #4A2A5E",
"&.	c #49295D",
"*.	c #47275D",
"=.	c #46255C",
". . . . . . . . . . . . . . . . . . ",
"+ + + + + + + + + + + + + + + + + + ",
"@ @ @ @ @ @ @ @ @ @ @ @ @ @ @ @ @ @ ",
"# # # # # $ % % % % % % % % % & # # ",
"* * * * * = - - - - - - - - - ; > * ",
", , , , , ' ) ! ~ ~ { { ] ] ^ / ( , ",
"_ : < [ [ } | 1 1 1 1 2 3 4 5 6 7 _ ",
"8 9 0 - - - - - - - - - a b c d e 8 ",
"f g - - - - - - - - - - - h i j k f ",
"l m - n o p p p p p p q - r s t u l ",
"v w - x y v v v v v v z - A B C D v ",
"E F - x G E E E E E E H - I J K L E ",
"M N - O P N N N N N N Q - R S S T M ",
"U V - - - - - - - - - - - W U U U U ",
"X Y Z ` ` ` ` ` ` ` ` ` `  .X X X X ",
"....+.@.@.@.@.@.@.@.@.@.@.#.........",
"$.$.$.$.$.$.$.$.$.$.$.$.$.$.$.$.$.$.",
"%.%.%.%.%.%.%.%.%.%.%.%.%.%.%.%.%.%.",
"&.&.&.&.&.&.&.&.&.&.&.&.&.&.&.&.&.&.",
"*.*.*.*.*.*.*.*.*.*.*.*.*.*.*.*.*.*.",
"=.=.=.=.=.=.=.=.=.=.=.=.=.=.=.=.=.=."};
