/* XPM */
static char * maximize_prelight_xpm[] = {
"18 21 72 1",
" 	c None",
".	c #614868",
"+	c #5F4667",
"@	c #5E4466",
"#	c #5D4266",
"$	c #B2B7AA",
"%	c #E8F2E0",
"&	c #E5EFDB",
"*	c #7C6F7E",
"=	c #5B4165",
"-	c #68546E",
";	c #D1F835",
">	c #DCF189",
",	c #BBBBBB",
"'	c #583F62",
")	c #5A3F65",
"!	c #726078",
"~	c #241929",
"{	c #593D64",
"]	c #705E76",
"^	c #1A121D",
"/	c #573C64",
"(	c #675470",
"_	c #D7F079",
":	c #99948E",
"<	c #8D877F",
"[	c #938E86",
"}	c #1B131F",
"|	c #563A63",
"1	c #67526F",
"2	c #909090",
"3	c #282525",
"4	c #171418",
"5	c #09060B",
"6	c #B0B0B0",
"7	c #2C1E33",
"8	c #553862",
"9	c #6B576F",
"0	c #3C2846",
"a	c #2C1D32",
"b	c #533662",
"c	c #644E6E",
"d	c #3B2646",
"e	c #2B1C32",
"f	c #523561",
"g	c #634D6D",
"h	c #3A2645",
"i	c #2A1B32",
"j	c #513361",
"k	c #624C6D",
"l	c #A1A1A1",
"m	c #665F69",
"n	c #89827F",
"o	c #2A1A32",
"p	c #4F3160",
"q	c #604A6C",
"r	c #291931",
"s	c #4E3060",
"t	c #563B66",
"u	c #949A91",
"v	c #787878",
"w	c #525252",
"x	c #281931",
"y	c #4D2E5F",
"z	c #311D3C",
"A	c #1B1021",
"B	c #3C244A",
"C	c #4B2C5E",
"D	c #4A2A5E",
"E	c #49295D",
"F	c #47275D",
"G	c #46255C",
"..................",
"++++++++++++++++++",
"@@@@@@@@@@@@@@@@@@",
"##$%%%%%%%%%%%&*##",
"=-;;;;;;;;;;;;>,'=",
")!;;;;;;;;;;;;;,~)",
"{];;;;;;;;;;;;;,^{",
"/(;_:<[[<<<<<<;,}/",
"|1;23455555555;67|",
"89;20888888888;6a8",
"bc;2dbbbbbbbbb;6eb",
"fg;2hfffffffff;6if",
"jk;lm<<<<<<n<<;6oj",
"pq;;;;;;;;;;;;;6rp",
"stuvvvvvvvvvvvvwxs",
"yyzAAAAAAAAAAAAABy",
"CCCCCCCCCCCCCCCCCC",
"DDDDDDDDDDDDDDDDDD",
"EEEEEEEEEEEEEEEEEE",
"FFFFFFFFFFFFFFFFFF",
"GGGGGGGGGGGGGGGGGG"};
