/* XPM */
static char * maximize_toggle_prelight_xpm[] = {
"18 21 87 1",
" 	c None",
".	c #614868",
"+	c #5F4667",
"@	c #5E4466",
"#	c #5D4266",
"$	c #BBB0BF",
"%	c #DED8E0",
"&	c #A798AC",
"*	c #5B4165",
"=	c #D1F835",
"-	c #47334F",
";	c #5A3F65",
">	c #B5B5B5",
",	c #A4A3A4",
"'	c #A3A2A3",
")	c #A2A1A2",
"!	c #A0A0A0",
"~	c #BDBDBD",
"{	c #271B2C",
"]	c #593D64",
"^	c #5B3F66",
"/	c #BDB2C2",
"(	c #D8D1DB",
"_	c #CBCACB",
":	c #CFCBD1",
"<	c #D0CCD1",
"[	c #B6B0B9",
"}	c #3A2A41",
"|	c #746878",
"1	c #34243B",
"2	c #573C64",
"3	c #7E6988",
"4	c #665E6A",
"5	c #897692",
"6	c #33233A",
"7	c #563A63",
"8	c #765F80",
"9	c #3C3B3C",
"0	c #887491",
"a	c #322239",
"b	c #553862",
"c	c #755D80",
"d	c #939393",
"e	c #0E0C0F",
"f	c #100D11",
"g	c #888789",
"h	c #423E43",
"i	c #86718F",
"j	c #312038",
"k	c #533662",
"l	c #735C80",
"m	c #909090",
"n	c #432C50",
"o	c #A99BB1",
"p	c #6C696D",
"q	c #9F8EA7",
"r	c #301F38",
"s	c #523561",
"t	c #735B7F",
"u	c #432B4F",
"v	c #A99AB0",
"w	c #2E1E37",
"x	c #513361",
"y	c #72597F",
"z	c #A5A5A5",
"A	c #655270",
"B	c #B9ADBF",
"C	c #3C3A3C",
"D	c #19101E",
"E	c #392444",
"F	c #4F3160",
"G	c #70587E",
"H	c #413E43",
"I	c #4E3060",
"J	c #5F4470",
"K	c #99939D",
"L	c #888888",
"M	c #28242A",
"N	c #4D2E5F",
"O	c #3E254C",
"P	c #301D3B",
"Q	c #351F41",
"R	c #4B2C5E",
"S	c #4A2A5E",
"T	c #49295D",
"U	c #47275D",
"V	c #46255C",
"..................",
"++++++++++++++++++",
"@@@@@@@@@@@@@@@@@@",
"#####$%%%%%%%%%&##",
"*****===========-*",
";;;;;=>,''))!!~={;",
"]^/((=_::::<[}|=1]",
"23===========45=62",
"78===========90=a7",
"bc=deffffffg=hi=jb",
"kl=mnkkkkkko=pq=rk",
"st=mussssssv====ws",
"xy=zAyyyyyyB=CDDEx",
"FG===========HFFFF",
"IJKLLLLLLLLLLMIIII",
"NNOPPPPPPPPPPQNNNN",
"RRRRRRRRRRRRRRRRRR",
"SSSSSSSSSSSSSSSSSS",
"TTTTTTTTTTTTTTTTTT",
"UUUUUUUUUUUUUUUUUU",
"VVVVVVVVVVVVVVVVVV"};
