/* XPM */
static char * right_top_inactive_xpm[] = {
"9 21 27 1",
" 	c None",
".	c #6E6E6E",
"+	c #696D72",
"@	c #666C74",
"#	c #6F6F6F",
"$	c #666D75",
"%	c #717171",
"&	c #6F7072",
"*	c #737373",
"=	c #757575",
"-	c #777777",
";	c #797979",
">	c #72767B",
",	c #7B7B7B",
"'	c #7D7D7D",
")	c #7F7F7F",
"!	c #818181",
"~	c #828282",
"{	c #848484",
"]	c #868686",
"^	c #888888",
"/	c #8A8A8A",
"(	c #8C8C8C",
"_	c #8E8E8E",
":	c #909090",
"<	c #929292",
"[	c #949494",
".+@      ",
"#####$   ",
"%%%%%%&  ",
"*******  ",
"======== ",
"-------- ",
";;;;;;;;>",
",,,,,,,,,",
"'''''''''",
")))))))))",
"!!!!!!!!!",
"~~~~~~~~~",
"{{{{{{{{{",
"]]]]]]]]]",
"^^^^^^^^^",
"/////////",
"(((((((((",
"_________",
":::::::::",
"<<<<<<<<<",
"[[[[[[[[["};
