/* XPM */
static char * right_top_active_xpm[] = {
"9 21 30 1",
" 	c None",
".	c #89A024",
"+	c #819826",
"@	c #7C9427",
"#	c #6A822D",
"$	c #869E23",
"%	c #799128",
"&	c #849D22",
"*	c #819A23",
"=	c #829B22",
"-	c #768F27",
";	c #809A21",
">	c #7E9921",
",	c #63802E",
"'	c #7B9720",
")	c #738F24",
"!	c #799620",
"~	c #77941F",
"{	c #75931E",
"]	c #73921E",
"^	c #70901D",
"/	c #6E8F1D",
"(	c #6C8E1C",
"_	c #6A8C1C",
":	c #688B1B",
"<	c #65891A",
"[	c #63881A",
"}	c #618719",
"|	c #5F8519",
"1	c #5D8418",
".+@#     ",
"$$$$$%   ",
"&&&&&&*  ",
"=======- ",
";;;;;;;; ",
">>>>>>>>,",
"'''''''')",
"!!!!!!!!!",
"~~~~~~~~~",
"{{{{{{{{{",
"]]]]]]]]]",
"^^^^^^^^^",
"/////////",
"(((((((((",
"_________",
":::::::::",
"<<<<<<<<<",
"[[[[[[[[[",
"}}}}}}}}}",
"|||||||||",
"111111111"};
