/* XPM */
static char * right_bottom_active_xpm[] = {
"16 16 12 1",
" 	c None",
".	c #5F8519",
"+	c #5D821A",
"@	c #5E8319",
"#	c #5B7E1C",
"$	c #5B7B1E",
"%	c #576C29",
"&	c #56652F",
"*	c #535838",
"=	c #4F424A",
"-	c #4E3F4C",
";	c #4A2A5E",
"               .",
"               .",
"               +",
"               @",
"               #",
"               $",
"               $",
"               %",
"               &",
"               *",
"               =",
"               -",
"               ;",
"               ;",
"               ;",
";;;;;;;;;;;;;;;;"};
