/* XPM */
static char * left_top_inactive_xpm[] = {
"19 21 28 1",
" 	c None",
".	c #53575C",
"+	c #575757",
"@	c #525961",
"#	c #585858",
"$	c #595A5C",
"%	c #5A5A5A",
"&	c #555B62",
"*	c #5B5B5B",
"=	c #5D5D5D",
"-	c #5F5F5F",
";	c #5C5F64",
">	c #606060",
",	c #606263",
"'	c #626262",
")	c #636363",
"!	c #656565",
"~	c #676767",
"{	c #686868",
"]	c #6A6A6A",
"^	c #6C6C6C",
"/	c #6D6D6D",
"(	c #6F6F6F",
"_	c #707070",
":	c #727272",
"<	c #747474",
"[	c #757575",
"}	c #777777",
"       .+++++++++++",
"   @###############",
"  $%%%%%%%%%%%%%%%%",
" &*****************",
" ==================",
" ------------------",
";>>>>>>>>>>>>>>>>>>",
",''''''''''''''''''",
")))))))))))))))))))",
"!!!!!!!!!!!!!!!!!!!",
"~~~~~~~~~~~~~~~~~~~",
"{{{{{{{{{{{{{{{{{{{",
"]]]]]]]]]]]]]]]]]]]",
"^^^^^^^^^^^^^^^^^^^",
"///////////////////",
"(((((((((((((((((((",
"___________________",
":::::::::::::::::::",
"<<<<<<<<<<<<<<<<<<<",
"[[[[[[[[[[[[[[[[[[[",
"}}}}}}}}}}}}}}}}}}}"};
