/* XPM */
static char * right_top_active_xpm[] = {
"9 21 32 1",
" 	c None",
".	c #DDDDDD",
"+	c #D2D3D3",
"@	c #CCCECF",
"#	c #B6BBBC",
"$	c #AEAEAE",
"%	c #DCDFE0",
"&	c #CCD1D3",
"*	c #DBE0E3",
"=	c #D7DDE0",
"-	c #DAE2E5",
";	c #CCD6DA",
">	c #D9E3E8",
",	c #D8E4EA",
"'	c #B9C8CF",
")	c #D6E0E8",
"!	c #CCD7DF",
"~	c #D4DBE5",
"{	c #D3DBE5",
"]	c #D1D6E3",
"^	c #CFD1E0",
"/	c #CCCCDD",
"(	c #C9C9DA",
"_	c #C5C5D7",
":	c #C2C2D3",
"<	c #BFBFD0",
"[	c #BBBBCC",
"}	c #B8B8CC",
"|	c #B5B5CC",
"1	c #B2B2CC",
"2	c #AEAECC",
"3	c #ABABCC",
".+@#$    ",
"%%%%%&   ",
"******=  ",
"-------; ",
">>>>>>>> ",
",,,,,,,,'",
"))))))))!",
"~~~~~~~~{",
"]]]]]]]]]",
"^^^^^^^^^",
"/////////",
"(((((((((",
"_________",
":::::::::",
"<<<<<<<<<",
"[[[[[[[[[",
"}}}}}}}}}",
"|||||||||",
"111111111",
"222222222",
"333333333"};
